<?xml version="1.0" encoding="utf-8"?>
<!-- Generator: Adobe Illustrator 21.0.0, SVG Export Plug-In . SVG Version: 6.00 Build 0)  -->
<svg version="1.1" id="Layer_1" xmlns="http://www.w3.org/2000/svg" xmlns:xlink="http://www.w3.org/1999/xlink" x="0px" y="0px"
	 viewBox="0 0 280.9 188.4" style="enable-background:new 0 0 280.9 188.4;" xml:space="preserve">
<style type="text/css">
	.st0{fill:#A19562;}
	.st1{fill:#E51837;}
	.st2{fill:#FFFFFF;}
</style>
<g>
	<ellipse class="st0" cx="140.4" cy="94.2" rx="140.4" ry="94.2"/>
	
		<ellipse transform="matrix(0.9995 -3.043109e-02 3.043109e-02 0.9995 -2.8037 4.3136)" class="st1" cx="140.3" cy="94.3" rx="137" ry="89.6"/>
	<path id="path5881" class="st0" d="M19.4,95.9h238.3v3.5H19.4V95.9z"/>
	<g>
		<g id="g5883" transform="matrix(1.25,0,0,-1.25,487.988,51.051875)">
			<path id="path5885" class="st0" d="M-202.7-0.6c-0.2,0-0.4-0.1-0.5-0.3C-203-1-203-1.2-203-1.4c0-0.3-0.2-0.4-0.3-0.7
				c-0.8-2-0.8-3.9,0.2-5.8c0.1-0.1,0.2-0.2,0.3-0.3c0.3-0.2,0.6-0.7,0.3-1c0,0.2-0.2,0.3-0.3,0.5c-0.5-0.4-0.4-0.4-1-0.2
				c-0.1,0-0.2-0.1-0.2-0.2c-0.7-0.9-1.9-3.7-1.5-4.9c0.1-0.3,0.2-0.4,0.2-0.7c0.2-0.3,0.2-0.8-0.1-1.1c0,0.2-0.1,0.5-0.2,0.6
				c-0.9-0.5-0.9,0.3-1.2,0.5c-0.9,0.1-2-0.2-2.7-0.7c-0.6-0.4-0.7-0.8-1.1-1.1c-0.2-0.2-0.4,0.2-0.5,0.3c-0.4,0.3-1.8,0.9-2.2,0.7
				c-0.2-0.4,1-1.2,1.2-1.5c0.1-0.1-0.1-0.3-0.2-0.4c-0.2-0.2-0.5-0.4-0.7-0.5c0.1-0.6,0.6-0.9,0.8-1.5c-0.1-0.3-0.4-0.5-0.7-0.7
				c0.1-0.4,0.3-0.7,0.6-1c0-0.3-0.3-0.5-0.3-0.6c0-0.2,0.5-0.7,0.7-0.9c0-0.1,0-0.3,0-0.4c0.3-0.4,1-0.2,1.2-0.6
				c0.5-0.1,1-0.1,1.4,0.2c-0.2,0.2-0.5,0.3-0.7,0.5c-0.5,0.2-0.8,0.4-1,0.9c-0.1,0.3-0.4,0.4-0.4,0.8c0,0.3,0,0.5,0,0.8
				c0,0.3-0.2,0.7-0.1,1c0.1,0.2,0.4,0.4,0.5,0.6c0.1,0.2,0,0.4,0.2,0.5c0.2,0.3,0.6,0.2,0.9,0.4c0.1,0.2,0.3,0.3,0.5,0.3
				c0.3-0.1,0.7-0.4,1-0.2c0.2,0.1,0.3,0.3,0.5,0.1c0.3-0.2,0.4-0.6,0.7-0.8c0.3-0.1,0.7,0.2,0.8-0.3c0.1-0.4-0.1-1,0.3-1.2
				c0.2-0.1,0.4,0,0.4-0.3c0-0.3-0.4-1-0.2-1.3c0.1-0.2,0.5-0.4,0.3-0.7c-0.2-0.3-0.5-0.5-0.6-0.9c0.7-0.5,1.3-0.9,1.4-1.9
				c0.1,0,0.2,0.4,0.7,0.4c0.2,0,0.6-0.3,0.6-0.5c0-0.1-0.1,0-0.2,0c-0.6,0-1-2.4-3.3-1.9c-0.1,0-0.2,0.1-0.2,0.1
				c0.3,0.2,0.8,0.4,0.8,0.9c0,0.3-0.4,0.4-0.3,0.7c0.1,0.4,0.8,0.3,0.8-0.2c0.3,0.6-0.4,0.9-0.8,1c-0.5-0.2-0.6-0.9-0.7-1
				c-0.3-0.3-0.8-0.5-1.2-0.6c-0.2-0.1-0.1-0.4-0.3-0.4c-0.5-0.2-1.4-0.2-1.9-0.2c-0.1-0.1-0.1-0.2-0.2-0.3c-0.6,0-1.4,0.3-2,0.6
				c-0.1-0.1-0.2-0.2-0.3-0.3c-0.4,0-1.3,0.8-1.6,1c-0.1,0-0.3-0.2-0.4-0.1c-0.2,0.2-0.8,1.2-1,1.5c-0.1,0-0.2-0.1-0.3,0
				c-0.2,0.3-0.2,1.2-0.3,1.4c0,0.3-0.3,0.2-0.5,0.3c-0.5,2.4-1,2.8-1.2,0l-0.2,0c-0.7,0.6-0.8-0.2-1-0.8c-0.1-0.1-0.2,0.1-0.3,0.2
				c-0.4,0.2-0.4-0.5-0.5-0.7c-0.5,0-1.1-1.5-0.6-1.8c0.2-0.1,0.4-0.1,0.5-0.3c0.3,0,0.8-0.1,0.8-0.5c0-0.1,0-0.2-0.1-0.2
				c-0.6,0.8-0.7-0.6-1.6-0.3c-1,0.3,0.1,1.5-1.5,0.7c-0.1-0.6-0.7-1.2-1.2-0.6c-0.3-0.1-0.3-0.3-0.3-0.5c-0.5,0.4-0.2,0.7,0.1,1
				c0.1,0.2,0.1,0.3,0.3,0.4c-0.5,0.4-1.8-0.9-1.6,0.9c-0.2,0.1-0.4,0.2-0.6,0c0.2,0.5,0.6,0.6,1,0.3c0.2,0,0.3,0,0.5-0.1
				c-0.2,0.3-0.3,1,0.2,1.1c0.1,0.2-0.1,0.4-0.3,0.5c0,0.2,0.5,0,0.7-0.1c0.2-0.3,0.4-1.8,1.4-1.2c0.3,0.2,0.6,1.2,0.6,1.5
				c0,1.5-0.4,3.5,0.2,4.9c0.1,0.2-0.9,0.4-1,0.6c-0.2,0.4-0.8-0.2-1-0.4l-0.1,0c-0.1,0.3-0.1,0.6-0.2,0.9c-0.1,0.3-1.2,0.3-1.4,0.2
				c0,0.5,0.7,1-0.8,0.9c-0.1,0.4-0.6,1.1-1,0.9c-0.4-1.2,0.8-1.4,0.1-1.9c0,1-0.7,0-1.2,0.8c-0.5,0.7,0.5,0.9,0.2,1.6
				c-0.1,0.1-0.2,0.1-0.4,0.1c-0.6-0.4-1.5-0.3-1.3,0.6c-0.2,0.2-0.3,0-0.5,0c-0.2,0,0.2,0.6,0.8,0.4c0.2,0.1,0.3,0,0.5,0
				c0,0.2-0.1,0.5-0.2,0.6c-0.6,0.5-0.5,1.2,0.3,1.4c0.2,0.2,0,0.4-0.2,0.6c0.1,0.1,0.3,0,0.5-0.1c0.3-0.2,0.2-0.6,0.2-0.8
				c0-0.1,0.1-0.5,0.2-0.6c0.1,0.5,0.6,1.1,1.1,0.5c0.3,0,0.3,0.2,0.3,0.5c0.1,0,0.1,0,0.1-0.1c0.2-0.4,0.1-0.8-0.3-1
				c0-0.2-0.1-0.4-0.2-0.5c0.1-0.2,0-0.6,0.4-0.7c0.3-0.1,1.3-0.5,1.6-0.5l0.1,0c0.3,0,0.5,0.2,0.8,0.2c0.6,0.2,1.3,0.2,2,0.3
				l0.8,0.1c0.1,0.1,0,0.1,0,0.3c-0.1,0.1-0.5,0.2-0.5,0.2c-0.1,0.7,0.4,1.5,0.4,1.6c0,0.1-0.1,0.1-0.1,0.2c0.1,0.7,1.4,1.1,1.7,1.4
				c0.1,0.1-0.1,0.1,0,0.2c0.2,0.2,1.8,0.5,1.9,0.6c0.1,0.1,0,0.2,0.1,0.2c0.5,0.3,1.4,0.1,1.8,0.7c0.4,0.7-1,1-1.6,0.8
				c-0.2-0.1-0.4-0.2-0.6-0.2c-0.5,0.1-1.9,0.6-2.1-0.2c-0.1-0.2,0.2-0.3,0.1-0.5L-221-8c-0.6-0.1-1.5,0.7-2.1-0.1
				c-0.2,0.2-0.5,0.5-0.8,0.5c-1,0-3.3-0.5-4.1,0.2c-0.1,0.1-0.1,0.2-0.1,0.3c0.1,0.4,1.5,0,1.5,0.3c0,0-0.1,0.1-0.1,0.1
				c-0.9,0.3-2.4,0.9-3.3,1c-0.4,0-0.8,0-1.1-0.2c0,0.3,0.9,1.2-0.4,1.6c0.2,0.2,0.4,0.1,0.6,0.1c1.9-0.3,3.6-2.4,5.5-2.3
				c0.3,0,1.9,0.4,2,0.5c0,0.1-0.1,0.1-0.1,0.1c-0.3,0.1-1.1-0.1-1.3-0.1c-0.2,0.1-0.4,0.2-0.7,0.3c-0.2,0.1-0.5-0.4-0.6-0.1
				c-0.3,0.5-0.6,0.6-1,0.1l-0.1,0c-0.1,0.2,0,0.5-0.3,0.6c-0.4,0.1-0.6-0.4-0.8,0c0.2,0.5-0.5,0.7-0.3,1.4c0.4,1.1,1.6,0.1,1.9,0
				c0.5,0,1-0.1,1.4-0.1c0.9,1.1,1.1,0.4,1.8,0.5c0.9,0.2,1.2,0.1,2.1-0.4c0.5-0.3,0.8-0.6,1.4-0.3c0.2,0.1,0.4,0.3,0.7,0.2
				c0.1-0.1,0.2-0.2,0.3-0.1c0.3,0.2,0.5,0.5,0.8,0.6c0.4,0.2,0.4-0.6,0.7-0.6c0.4-0.1,0.8,0.7,0.9,0.8c0.3,0.3,0.8-0.8,1-1
				c0.4-0.1,0.5,0.5,0.7,0.6c0.4,0.1,0.7-1.1,0.8-1.4c0.2-0.4,0.5,0.3,0.8,0.1c0.4-0.3,0.1-1.4,0.1-1.8c0-0.3,0.5-0.1,0.6-0.4
				c0.1-0.3-0.5-1-0.6-1.2c-0.1-0.2,0.2-0.4,0.3-0.5c0.1-0.2-0.1-0.4-0.2-0.5c-0.2-0.2-0.5-0.4-0.7-0.6c-0.2-0.2,0.2-0.4,0.1-0.5
				c-0.1-0.2-2-1.4-1.1-1.8c0.6,0.1,2.1,1.1,2.5,1.6c0.2,0.2,0.9,3.5,1,3.9c-0.3,0.4-0.5,1.8,0.2,1.9c-0.1-0.2-0.2-0.3-0.1-0.5
				c0.3,0.2,0.5,0.1,0.7-0.1c1.8,2,3.8,3,6.4,3.8c0.1,0.3,0.2,0.5,0.6,0.6C-203.5-0.5-203-0.3-202.7-0.6 M-203.5-1.3l-0.2,0.1
				c-0.2,0-0.3-0.3-0.3-0.5c-2.8-0.9-4.7-2-6.6-4.2c-0.6,1.1-1,0.1-0.3-0.5c-0.2-0.7-0.8-4.3-1.2-4.7c-0.7-0.6-1.6-1-2.3-1.6l0-0.1
				c0.1,0,0.2,0,0.3,0.1c0.6,0.2,1.7,0.9,2.2,1.3c0.6,0.5,1,3.3,1.1,3.8c0.1,0.4,0.2,1,0.5,1.4c1.6,2,3.7,3.5,6.2,4.1
				C-203.8-2-203.3-1.7-203.5-1.3 M-204.2-3.2l-0.1,0.1c-0.1,0-0.2-0.2-0.2-0.3c-0.4-1.1-0.1-2.2-0.2-3.3c0-0.2-0.1-0.3-0.3-0.2
				c-0.2,0.2-0.3,1-0.4,1.2c0,0.3-0.1,1.9-0.1,1.9c-0.6,0-0.3-2.5-0.3-2.8l-0.1-0.1c-0.4,0-0.6,1.9-0.6,2.3l-0.1,0.1
				c-0.5-0.1,0.1-2.4-0.4-2c-0.3,0.2-0.4,1.1-0.5,1.4c-0.4-0.1,0.1-1.4-0.3-1.3c-0.1,0-0.2,0.1-0.2,0.2c-0.1,0.2-0.1,0.4-0.2,0.5
				l-0.1,0c0-0.2,0-0.3-0.1-0.5c0-0.2-0.5,0.1-0.5-0.3c0-0.1,1.4-0.4,1.6-0.5c1.2-0.4,2.3-0.9,3.3-1.6c0.2-0.1,0.4-0.4,0.6-0.3
				c0.6,0.1-0.1,0.6-0.2,0.8C-204.3-6.4-204.5-4.9-204.2-3.2 M-228.1-4.3l0.1,0c0.1,0.1,0.2,0.3,0.3,0.3c0.1,0,0.2,0,0.3,0
				c0.1-0.1,0-0.3,0.1-0.3c0.1,0,0.5,0.1,0.6,0c0.3-0.2,0.3-0.3,0.7-0.2c0.2,0,0.3-0.1,0.4-0.2c0.2-0.2,0.4,0,0.5,0
				c0.2,0,0.6-0.3,0.8-0.3c0.7-0.3,1.9-0.3,2.2-0.4c0.1,0,0.1-0.1,0.1-0.2c0-0.2-0.4-0.4-0.5-0.4c-0.4-0.1-0.9-0.2-1.3-0.3
				c-1.1-0.2-2-0.8-3.2-0.8c-0.2,0-0.3,0-0.5-0.1c0.4-0.3,3.8,0.3,4,0.6c0.4,0.5,0.8-0.1,1.1-0.1c0.4,0-0.1,0.4,0.1,0.6
				c0.3,0.3,0.8-0.1,1.1,0.2l0,0.2c-0.7,0.4-0.4,0.4,0,0.8c0.3,0.3,0.3,0.9,0,0.7c-0.3-0.7-1.8,0.6-2.2,0.7
				c-0.9,0.2-1.3-0.5-1.6-0.5c-0.2,0-1.5,0.2-1.7,0.2c-0.3,0.1-0.7,0.5-1.1,0.5C-228.1-3.7-228.4-4.1-228.1-4.3 M-219.2-4.5
				c0.5-0.3,0.9-0.8,1-1.2c0.1-0.2,0-0.4,0.1-0.6l0.2,0C-217.3-5.6-217.9-4.6-219.2-4.5 M-217.6-4.4c1-0.9,0.4-1.3,0.3-2
				C-216.3-6.7-216-4.6-217.6-4.4 M-216-4.7c0.4-0.7,0.3-1.4-0.3-2c-0.1-0.1-0.3-0.3-0.3-0.4c0.3-0.4,1.3,0.7,1.4,1
				C-215.1-5.5-215.4-5-216-4.7 M-219.9-4.9l-0.1,0c-0.1-0.3,0.8-1.4,1-1.1C-218.8-5.7-219.7-5-219.9-4.9 M-214.5-5.3
				c0-0.3,0-0.6,0-0.9c-0.5-3.2-6.3-2.7-6.8-5.6c0.1,0.1,0.2,0.1,0.3,0.1c-0.1-0.7-0.5-1.1-0.2-1.9c0.2,0.3,0.3,0.7,0.6,0.9l0.1,0
				c-0.1-0.3-0.4-1.6-0.1-1.8c0.2,0.2,0.3,0.7,0.6,0.7l0.1-0.1l-0.2-1c-0.1-0.5-0.1-1.1-0.2-1.6c-0.1-0.5-0.4-1.1-0.5-1.6
				c-0.3-1.1-0.5-2.3-0.6-3.5c0-0.5,0-1-0.1-1.5c0-0.2-0.7-1.6-0.8-1.7c-0.5-0.5-1.3-0.3-1.9-0.1l0-0.1c0.2-0.1,0.5-0.1,0.7-0.2
				c0.2-0.1-0.1-0.2,0-0.4c0.2,0.1,1.1,0.6,1.4,0.5c0.2-0.1,0.2-0.3,0.4-0.2c0,0.3-0.2,0.6-0.1,0.9c0.1,0.2,0.6,1.1,0.6,1.2
				c0,0.5,0,1,0.1,1.5c0,0.1,0.1,0.4,0.1,0.5c0.1,0.1,0.2-0.2,0.3-0.1l0.1,0.1c0,0.4-0.1,1.3,0.1,1.5c0,0,0.1,0.1,0.1,0
				c0.3-0.2,0.3-0.8,0.5-0.8c0.1,0,0.1,0.1,0.1,0.2c0.1,0.5-0.2,1.1,0,1.7c0,0.2,0.1,0.4,0.3,0.4c0.2,0,0.2-0.2,0.3-0.2
				c0.1,0.3-0.2,2.3,0.4,2.6l0.1-0.1c0-0.3,0.1-1.3,0.4-1.5c0.1,0.2,0.3,1.1,0.6,1.1l0.1-0.1c-0.1-0.3-0.2-2.1,0.1-2.2
				c0.1,0.4,0.2,0.8,0.3,1.1c0.3,0.8,1.1,1.5,1.8,2c0.2,0.1,0.4,0.2,0.6,0.3c0,0,0.1,0.1,0.1,0.1c-0.6,0.6-2-0.5-2.6-0.5
				c0.1,0.6,1.4,1.2,1.9,1.5l0,0.1c-0.8,0.3-1.9-0.3-2.6-0.6c0,0-0.1,0-0.1,0c-0.3,0.4,2,1.4,2.1,1.6c-0.9,0.1-1.6-0.2-2.5-0.6
				c-0.1,0-0.1,0-0.1,0.1c0.6,0.6,1.3,1,2.1,1.3c-0.5,0.2-1.9-0.2-2.4-0.5h-0.1l0,0.1c0.6,0.7,1.5,1,2.4,1.4c-0.7,0-1.4-0.1-2-0.3
				c-0.2-0.1-0.3-0.1-0.5-0.2l-0.1,0.1c1,0.9,2,0.8,3,1.3c-0.9,0-1.9-0.1-2.8-0.2c0.5,0.7,5.4,1.3,5.3,2.4c-0.8-0.7-2.7-1.1-3.8-1.2
				c0,0,4.1,1.3,3.8,3.1C-214.1-5.9-214.3-5.6-214.5-5.3 M-219.9-6c-0.1,0.2-0.9,0.7-0.8,0.2C-220.7-6.4-219.6-6.5-219.9-6
				 M-209-7.3c-0.2,0.3-0.5-0.5-0.5-0.6c0-0.3,1.3-2.2,1.5-2.6c0.7-1.1,1.4-2.2,1.8-3.5c0.1-0.2,0-0.7,0.3-0.7
				c0.1,0,0.2,0.1,0.3,0.2c0.1,0.2-0.1,0.4-0.2,0.6c-0.1,0.3-0.1,1.2,0,1.6c0.1,1.2,0.7,2.2,1.3,3.3c0,0,0.1,0.2,0,0.2
				c-0.1,0-0.2-0.1-0.3-0.2c-0.8-0.8-1.1-2.2-1.6-2.8c-0.2,0-0.2,0.2-0.2,0.3c0.1,1.1,0.8,2,1.2,2.9c0,0.1-0.1,0.1-0.1,0.2
				c-0.6-0.4-1.2-1.8-1.5-2.4c-0.1-0.1-0.1-0.2-0.3-0.1c-0.2,0.6,0.9,2.3,1,2.9c-0.5-0.2-1.3-2.1-1.5-2.1l-0.1,0.1
				c0.1,0.8,0.7,1.6,0.7,2.2c-0.5-0.1-0.9-1.8-1.2-1.3c-0.1,0.5,0.3,1,0.4,1.5c0,0.1,0,0.2,0,0.2c-0.2,0.2-0.9-1.5-1.1-0.8
				C-209.2-8.1-209-7.6-209-7.3 M-209.8-10.2c-0.1,0-0.2-0.1-0.2-0.3c-0.2-0.7,0.1-4-0.2-4.2c-0.3-0.2-0.4,1.3-0.5,1.5
				c-0.1,0.6-0.1,1.2-0.2,1.7l-0.1-0.1c-0.3-0.7,0-2.9-0.1-3.1c-0.1-0.2-1.8,0.2-2.4-0.1l0-0.1c0.2,0,0.4,0,0.6,0
				c0.7,0,1.3-0.2,1.9-0.5c0.1,0,0.4-0.2,0.4-0.2c0,0,0.1,0,0.1,0c1.4,1.2,1.8,1.3,3.6,1.6c0,0.2-0.1,0.6-0.3,0.7
				c-0.2,0.1-0.4-0.7-0.6-0.2c0,0.1-0.1,0.9-0.1,1.1l-0.1,0c-0.1-0.3-0.1-1.3-0.2-1.3l-0.1,0c-0.3,0.5-0.3,2.2-0.3,2.8l-0.1,0.1
				c-0.4-0.2-0.1-2.4-0.2-2.9c0-0.1-0.1-0.1-0.2-0.1C-209.7-13.6-209.8-10.7-209.8-10.2 M-211.7-14c-0.2,0.5-0.1,1.1-0.3,1.6
				c0,0.1-0.2,0-0.2,0C-212.5-12.8-212.5-14.2-211.7-14 M-213.1-13.9l0.1,0.1c0,0.2,0,0.6,0,0.8C-213.1-12.5-213.8-13.8-213.1-13.9
				 M-228.1-12.4c0.4-0.2,0.5,0.6,0.4,0.6C-228.1-11.7-228.3-12.2-228.1-12.4 M-221.9-14c-0.8,0-1.6-0.1-2.4-0.2
				c-0.3-0.1-1-0.3-1.3-0.3c-0.5,0.1-1.5,0.4-2,0.6c-0.4,0.2-0.8,0.6-1.2,0.8c0-0.2,0.1-0.3,0.2-0.4c0-0.1-0.1-0.2-0.1-0.3
				c0.3,0,0.7,0.1,0.8-0.3c0-0.1-0.2-0.2-0.1-0.3c1,0.3,1.8-0.2,2.7-0.6c0-0.1-0.2-0.3-0.2-0.4c0-0.1,0.1-0.1,0.2-0.1
				c0.7,0.2,1.3,1.1,2.1,0.8l0.1-0.1c-0.1-0.3-0.4-0.4-0.4-0.6l0.1,0c0.3,0.1,0.9,0.5,1.1,0.5c0.6,0,0.5-1.2,0.9-1.1
				c-0.1,0.4-0.1,0.8-0.2,1.2c-0.1,0-0.2,0-0.2,0C-221.9-14.5-221.9-14.2-221.9-14 M-229.2-12.3c0,0.2,0.1,0.7,0,0.7
				C-229.7-11.5-229.8-12.6-229.2-12.3 M-229.1-14c0,0.2-0.7,0.6-0.7,0.1C-229.9-14.1-229.2-14.5-229.1-14 M-213.5-17.7
				c-0.4,0.2-1.1-0.1-1.5-0.3c-1.3-0.7-1.7-2-1.6-3.4c0-0.1,0-0.3,0.1-0.3l0.1,0C-215.7-19.6-215.2-19.2-213.5-17.7 M-228.2-15.3
				l-0.1,0c-0.3-0.2,0.1-1,0.4-0.7C-228-15.7-228.1-15.5-228.2-15.3 M-209.2-18.2c0.3-0.2,0.6-0.5,0.8-0.8c0.1-0.1,0.1-0.3,0.2-0.4
				C-207.9-18.5-208.9-18-209.2-18.2 M-207.8-18.4c0.2-0.5,0.4-1,0.4-1.6C-206.9-19.8-207.3-18.4-207.8-18.4 M-213.1-19.4
				c-2.2,0.3-3-2.5-2.6-4l0.2-0.1c0.1,0.3,0.1,0.6,0.1,0.8C-215.1-21.2-214.2-20.3-213.1-19.4 M-209-19.4c-0.2,1.1-1.4,0.7-1.3,0.4
				C-209.7-18.9-209.6-19-209-19.4 M-206.5-19.4c-0.1,0-0.1,0-0.2-0.1c-0.2-0.3-0.2-0.9-0.3-1.2c-0.1-0.2-0.2-0.4-0.2-0.6l0.1,0
				C-206.4-20.9-206.5-20-206.5-19.4 M-208.1-22.1c1,1.4-0.2,2.9-1.1,2.3C-210.2-20.6-208.8-21.8-208.1-22.1 M-209.7-19.6
				c-0.5,0.5-1.6-0.3-1.2-1C-210.4-20.1-210.5-19.9-209.7-19.6 M-210-20.5c-0.4,0.1-0.8-1-0.1-1.5C-210-21.5-210.4-21.4-210-20.5
				 M-205.9-20.7c0,0.2-0.2,0-0.2-0.1c-0.4-0.5-0.7-1.1-1.2-1.5c0,0-0.1-0.1-0.1-0.1c0.1,0,0.2-0.1,0.2-0.1
				C-206.6-22.3-206-21.3-205.9-20.7 M-209.1-22.7c-0.4,0.4-0.4,0.7-0.6,1.2C-209.8-21-210.1-23-209.1-22.7 M-213-21.1
				c-0.1,0.1-0.3,0-0.5,0c-1.1-0.3-1.8-2-0.9-3C-214.4-22.9-213.9-22.2-213-21.1 M-205.7-22.1c-0.2,0-0.9-0.5-1-0.6
				c0.1-0.1,0.2-0.1,0.4-0.2C-206.1-22.7-205.9-22.4-205.7-22.1 M-208.7-22.3l-0.1,0c0-0.5,0.5-1.1,1-0.9l0,0.1
				C-208.2-23-208.5-22.7-208.7-22.3 M-212.8-25.2c-0.3,0.6-0.3,1.1-0.1,1.7c0,0.1,0.6,0.9,0.2,0.9
				C-214.2-22.8-213.9-25.3-212.8-25.2 M-207.7-22.8c0-0.7,1.8-1.1,2.3-1.7c0.4-0.5,0-0.9,0-1.4c0.2,0.1,0.4,0.3,0.5,0.5h-0.1
				c-0.1,0.1,0,0.2,0,0.3c0.1,0.5-0.1,0.9-0.4,1.2c-0.6,0.5-1.4,0.6-2,1.1C-207.5-22.9-207.5-22.8-207.7-22.8 M-208.8-23.7
				c0.1-0.4,1.2-0.9,1.4-0.5c-0.2,0.2-0.9,0.3-1.2,0.5C-208.6-23.7-208.7-23.6-208.8-23.7 M-224.1-24.6c0.1,0.1-0.1,0.3-0.2,0.5
				C-224.6-23.3-224.8-24.8-224.1-24.6 M-207.9-25.1c-1,0.4-1,0.8-1.4,1.1c-0.1,0-0.1,0-0.2,0C-209.9-24.5-208.4-25.8-207.9-25.1
				 M-211.2-25.8l0.1,0.1c-0.4,0.7-0.5,1.3-0.7,2c0,0.1-0.1,0.2-0.2,0.2C-212.7-23.5-212.2-26-211.2-25.8 M-210.6-23.9l-0.1-0.2
				c-0.1-0.9,0.8-1.9,1.6-1.5c-0.5,0.4-0.9,0.9-1.2,1.5C-210.5-24-210.5-23.9-210.6-23.9 M-224.7-25.4c-0.1,0.1-0.5,0.2-0.7,0.2
				l0-0.2c0.1-0.3,0.5-0.4,0.7-0.2L-224.7-25.4z M-221.6-26.1c-0.1-0.5,0.7-0.8,0.7-0.3C-220.9-26.4-221.5-26-221.6-26.1
				 M-223.3-26.3c0,0.4-0.6-0.1-0.6-0.1C-224.1-26.7-223.3-26.9-223.3-26.3 M-214.2-16.2c-0.4,0.2-1.1-0.1-1.5-0.3
				c-1.3-0.7-1.7-2-1.6-3.4c0-0.1,0-0.3,0.1-0.3l0.1,0C-216.3-18.1-215.8-17.7-214.2-16.2"/>
		</g>
		<g id="g5887" transform="matrix(1.25,0,0,-1.25,464.13788,43.486875)">
			<path id="path5889" class="st0" d="M-193.3-3.6c0.7,0.2,1.2,0.7,1.5,1.5c0.1,0.2,0.1,0.5,0.3,0.6c0.5,0.2,1.2,0.2,1.7,0
				c0.1-0.1,0.3-0.1,0.3-0.3c0.1-0.3,0.1-0.7,0.1-1.1c0.8,0.6,1.4,1.5,1.5,2.6c0.4-0.1,0.7-0.5,0.9-0.8c0.1-0.3,0.2-0.6,0.2-0.9
				c0.7-0.2,1.3-0.7,1.4-1.4c0-0.2,0-0.4,0-0.5c-0.1,0-0.1,0.1-0.1,0.1c-0.2,0.1-0.4,0.2-0.6,0.2c-0.7-0.3-1.2-0.8-1.9-1.1
				c-0.3-0.2-0.6-0.3-0.9-0.4c-0.5-0.1-1.2,0-1.6,0.4l-0.1,0.1c-0.5-0.5-1.1-0.8-1.7-1c-0.3-0.1-0.7-0.2-1-0.2l0-0.3
				c-1.8,0-1.9-2-1.9-2h-1.3v-0.4h-2.4v0.4h-1.3c0,0,0,2-1.9,2l0,0.2c-0.4,0-0.7,0.1-1.1,0.2c-0.6,0.3-1.2,0.6-1.7,1l-0.1-0.1
				c-0.4-0.4-1-0.5-1.6-0.4c-0.3,0.1-0.6,0.2-0.9,0.4c-0.6,0.4-1.2,0.9-1.9,1.1c-0.2,0-0.5,0-0.6-0.2c0,0-0.1-0.1-0.1-0.1
				c0,0.1,0,0.4,0,0.5c0.1,0.7,0.7,1.2,1.4,1.4c0,0.3,0.1,0.6,0.2,0.9c0.2,0.4,0.5,0.7,0.9,0.8c0.1-1.1,0.7-2,1.5-2.6
				c0,0.4-0.1,0.8,0.1,1.1c0,0.1,0.2,0.2,0.3,0.3c0.5,0.2,1.2,0.3,1.7,0c0.2-0.1,0.2-0.4,0.3-0.6c0.2-0.7,0.8-1.3,1.5-1.5
				c-0.1,0.4-0.1,0.7-0.1,0.7s1.9-0.2,2.9,0.2c0,0,0.3-1.8,1.7-1.8c1.5,0,1.7,1.8,1.7,1.8c1.1-0.5,2.9-0.2,2.9-0.2
				S-193.2-3.2-193.3-3.6 M-208.3-2.2c0-0.1,0-0.3,0-0.4c-0.1,0-0.2,0-0.2,0c-0.4,0-0.8-0.1-1-0.5c0.1,0,0.1,0,0.2,0
				c0.3,0,0.5-0.2,0.7-0.4c0.6-0.4,1.1-0.9,1.8-1.2c0.1,0.1,0.1,0.2,0.1,0.3c-0.4,0.5-1,0.8-1.3,1.3c0,0.1,0,0.1,0,0.2
				c0.2,0.1,1.5-1.1,1.6-0.9c0.1,0.1,0.1,0.1,0.1,0.2c-0.8,0.5-1.4,1.3-1.7,2.2C-208.2-1.6-208.3-1.9-208.3-2.2 M-199-7.8
				c0,0,0,0.6-0.2,2.4c0,0-0.6-0.2-1-0.1c0.2,0.2,0.7,0.7,0.7,1.2c0,0-0.5-0.3-1.2-0.1c0.6,0.4,0.6,1.1,0.6,1.1
				c-0.8-0.2-1.4-0.1-1.4-0.1s0.2-1.1,0.2-2.4c1.5-0.6,1.5-2,1.5-2H-199z M-202.3-4.3c-0.9,0.2-1.7,0.8-2.1,1.7
				c-0.1,0.2-0.2,0.4-0.2,0.6c-0.1,0.1-0.1,0.1-0.2,0.1c-0.3-0.1,0.1-0.7,0.2-1c0.1-0.3,0.5-0.7,0.4-0.8c-0.3-0.1-0.4,0.1-0.5,0.3
				c-0.3,0.4-0.5,0.9-0.6,1.4c-0.1,0.1-0.2,0.1-0.2-0.1c0-0.4,0.2-0.8,0.3-1.1c0.6-1.2,1.8-2,3.1-2.1l0,0.3
				c-0.6,0.1-1.1,0.3-1.6,0.7c-0.1,0.1-0.3,0.2-0.2,0.4c0,0.1,0.1,0,0.1,0c0.7-0.4,1.3-0.6,1.6-0.7L-202.3-4.3z M-187.6-1.3
				c-0.3-0.9-1-1.6-1.7-2.2c0-0.1,0-0.2,0.1-0.2c0.1-0.2,1.4,1,1.6,0.9c0-0.1,0-0.1,0-0.2c-0.3-0.5-0.9-0.8-1.3-1.3
				c0-0.1,0.1-0.2,0.1-0.3c0.7,0.3,1.2,0.8,1.8,1.2c0.2,0.1,0.5,0.3,0.7,0.4c0.1,0,0.1,0,0.2,0c-0.2,0.4-0.6,0.5-1,0.5
				c-0.1,0-0.2,0-0.2,0c0,0.1,0,0.3,0,0.4C-187.3-1.9-187.4-1.6-187.6-1.3 M-195.8-7.8c0,0-0.1,1.4,1.5,2c0,1.3,0.2,2.4,0.2,2.4
				s-0.6,0-1.4,0.1c0,0,0-0.7,0.6-1.1c-0.6-0.2-1.2,0.1-1.2,0.1c0-0.5,0.4-1,0.7-1.2c-0.4-0.2-1,0.1-1,0.1c-0.2-1.8-0.2-2.4-0.2-2.4
				H-195.8z M-193.4-4.7c0.4,0,0.9,0.2,1.6,0.7c0,0,0.1,0,0.1,0c0.1-0.2-0.1-0.3-0.2-0.4c-0.5-0.3-1-0.6-1.6-0.7l0-0.3
				c1.3,0.1,2.5,0.9,3.1,2.1c0.2,0.4,0.3,0.7,0.3,1.1c0,0.2-0.2,0.2-0.2,0.1c-0.2-0.5-0.3-0.9-0.6-1.4c-0.1-0.1-0.2-0.4-0.5-0.3
				c-0.1,0.1,0.3,0.5,0.4,0.8c0.1,0.3,0.4,0.9,0.2,1c-0.1,0-0.2,0-0.2-0.1c0-0.2-0.1-0.4-0.2-0.6c-0.4-0.9-1.2-1.5-2.1-1.7
				L-193.4-4.7z M-197.8-6.6c0.4,0,0.7,0.4,0.7,0.9c0,0.5-0.3,0.9-0.7,0.9c-0.4,0-0.7-0.4-0.7-0.9C-198.5-6.2-198.2-6.6-197.8-6.6"
				/>
		</g>
		<g id="g5891" transform="matrix(1.25,0,0,-1.25,440.50662,61.750495)">
			<path id="path5893" class="st0" d="M-183.9,3.6l0.3,0l0-0.1c-0.3-0.5-2.2-0.3-2.6,0.1c-0.1,0.1-0.2,0.3-0.4,0.4l0,0.2
				C-185.6,4.7-184.8,4.2-183.9,3.6 M-185.8,3.5l0.1,0.5l-0.6-0.1L-185.8,3.5z M-184.4,3.5l-0.5,0.4l-0.1-0.5L-184.4,3.5"/>
		</g>
		<g id="g5895" transform="matrix(1.25,0,0,-1.25,452.88412,44.949375)">
			<path id="path5897" class="st0" d="M-188.8-3c-0.4,0-1.4,0.5-1.4,1.5v0.4c-0.5,0.3-1,0.7-1.2,1.4c-0.2,0.7,0,1.4,0.4,1.9
				c0,0.1,0,0.2,0,0.3c0.1,0.1,0.3,0.3,0.5,0.2c0.2-0.1,0.3,0.1,0.4,0.2c0.1,0,0.1,0.1,0.2,0.2c-0.5,0.3-1.3,0.6-1.5,1.3
				c0.2,0,0.4,0,0.7,0c0,0.1-0.1,0.1-0.1,0.1c-0.2,0.1-0.4,0.1-0.6,0.3c-0.2,0.2-0.4,0.5-0.5,0.8c0.1,0,0.2-0.1,0.3-0.1
				c0.2-0.1,0.4-0.1,0.6-0.1c-0.4,0.2-1,0.3-1.1,0.8c-0.1,0.2-0.1,0.3-0.1,0.5c0.2-0.2,0.6-0.1,0.8-0.2l0.2-0.1
				c-0.1,0.2-0.2,0.6-0.5,0.7c-0.2,0-0.3-0.1-0.5-0.1c-0.4,0-0.7,0.3-0.8,0.6c-0.2,0.6,0.1,1.2,0.5,1.6c0.3,0.3,0.8,0.4,1.3,0.4
				c0.3,0,0.6-0.2,0.6-0.2s0.4,1.5,1.8,1.5c1.6,0,1.8-1.5,1.8-1.5s0.3,0.1,0.6,0.2c0.5,0,0.9-0.1,1.3-0.4c0.4-0.4,0.7-1,0.5-1.6
				c-0.1-0.3-0.4-0.6-0.8-0.6c-0.2,0-0.3,0.1-0.5,0.1c-0.2-0.1-0.3-0.4-0.5-0.7l0.2,0.1c0.3,0.1,0.6,0.1,0.8,0.2
				c0-0.2-0.1-0.4-0.1-0.5c-0.2-0.5-0.7-0.6-1.1-0.8c0.2,0,0.4,0,0.6,0.1c0.1,0,0.2,0.1,0.3,0.1c-0.1-0.3-0.3-0.6-0.5-0.8
				c-0.2-0.1-0.4-0.2-0.6-0.3c-0.1,0-0.1,0-0.1-0.1c0.2,0.1,0.5,0,0.7,0c-0.2-0.6-1-0.9-1.5-1.3c0-0.1,0.1-0.1,0.2-0.2
				c0.2-0.1,0.3-0.2,0.4-0.2c0.2,0,0.4-0.1,0.5-0.2c0-0.1,0.1-0.2,0-0.3c0.4-0.5,0.6-1.2,0.4-1.9c-0.1-0.7-0.6-1.1-1.2-1.4v-0.4
				C-187.4-2.5-188.3-3-188.8-3 M-190.3,2.1c-0.1,0-0.1-0.1-0.1-0.2c0-0.1,0.2-0.1,0.3-0.2c-0.2-0.3-0.4-0.7-0.4-1.1
				c0-0.5,0-1.1,0.5-1.3c0.1,0,0.1-0.1,0.2-0.1c-0.3,0.7-0.2,1.6,0.1,2.3c0,0.1,0.1,0,0.2,0c0.1,0,0.3,0,0.4-0.1
				c0-0.2-0.1-0.4-0.1-0.6c-0.1-0.6,0-1.3,0.1-1.9c0.1,0,0.3,0,0.5,0c0.2,0.8,0.2,1.6,0,2.5c0.2,0,0.4,0.1,0.6,0.1
				c0.1-0.1,0.1-0.3,0.2-0.5c0.2-0.6,0.1-1.3-0.1-1.8l0.1,0c0.3,0.1,0.4,0.4,0.5,0.7c0.2,0.6,0,1.3-0.4,1.7c0.1,0.1,0.3,0.1,0.3,0.3
				c0,0.1-0.1,0.1-0.2,0.1c-0.7-0.3-1.6-0.3-2.4-0.1C-190,2-190.1,2.1-190.3,2.1 M-189,10.2c-0.4-0.1-0.7-0.3-0.9-0.7
				c-0.2-0.4-0.1-0.9,0.2-1.2c0,0.1,0,0.2,0.1,0.2c0.1,0,0.2,0,0.3-0.1c0.1-0.1,0.1-0.1,0.1-0.2c0.1-0.6-0.1-1.3-0.2-2
				c0-0.5,0-1.2,0-1.7c0-0.3,0.1-0.7,0.2-1c0-0.1,0.1-0.1,0.1-0.1c0.1,0,0.1,0.1,0.1,0.1c-0.2,0.6-0.1,1.6-0.1,2.3
				c0,0.8,0.2,1.5,0.2,2.2c0,0.3,0,0.6-0.2,0.8c-0.1,0.1-0.2,0.2-0.3,0.1c-0.1,0-0.2-0.1-0.4-0.2c0,0,0,0.1-0.1,0.2
				c0,0.3,0.1,0.6,0.4,0.7c0.2,0.1,0.6,0.1,0.8,0c0.4-0.2,0.5-0.5,0.5-1c0-0.7-0.3-1.1-0.4-1.7c-0.2-0.9-0.3-2.5-0.1-3.5
				c0,0,0.1-0.1,0.1-0.1c0.1,0,0.1,0.1,0.1,0.1c0,0.4,0,1.3,0.1,1.7c0.1,0.6,0.1,1.2,0.2,1.9c0.1,0.6,0.5,1.2,0.4,1.8
				c0,0.3-0.1,0.5-0.3,0.7C-188.1,10.1-188.6,10.3-189,10.2 M-187.3,7.9c-0.3-0.5-0.3-1-0.3-1.6c0-0.8,0-1.6-0.2-2.4
				c0.5,0.2,0.4,0.9,0.5,1.4c0.1,0.8,0,1.8,0.4,2.5c0.2,0.3,0.5,0.5,0.9,0.4c0.3,0,0.5-0.2,0.6-0.5c0-0.1,0-0.1,0-0.2
				c0.2,0.1,0.2,0.3,0.2,0.5c-0.1,0.4-0.4,0.6-0.8,0.6C-186.6,8.7-187.1,8.4-187.3,7.9 M-191.5,8.7c-0.4,0-0.7-0.3-0.8-0.6
				c0-0.2,0-0.4,0.2-0.5c0,0.1,0,0.1,0,0.2c0.1,0.2,0.3,0.5,0.6,0.5c0.4,0.1,0.7-0.1,0.9-0.4c0.4-0.7,0.4-1.6,0.4-2.5
				c0.1-0.5,0-1.2,0.5-1.4c-0.2,0.8-0.2,1.6-0.2,2.4c0,0.6,0,1.1-0.3,1.6C-190.5,8.4-191,8.7-191.5,8.7 M-189.6-1.3v-0.9l0.4-0.3
				v1.1L-189.6-1.3"/>
		</g>
		<g id="g5899" transform="matrix(1.25,0,0,-1.25,239.56412,56.254375)">
			<path id="path5901" class="st0" d="M-104.6,1.4c1.5,1.4,3.5,1.8,4.3,0.8c0.9-1,0.4-2.9-1.1-4.3c-1.5-1.4-3.5-1.8-4.3-0.8
				C-106.7-1.9-106.2,0-104.6,1.4"/>
		</g>
		<g id="g5903" transform="matrix(1.25,0,0,-1.25,337.17425,76.564245)">
			<path id="path5905" class="st0" d="M-143.2,9.4c-0.7,0.8-2,0.1-2.8-0.3c-3.4-2-6.4-4.8-9.2-7.9c-1.5-1.7-3-3.4-3.7-5.4
				c-0.1-0.3,0.2-0.8,0.4-0.9c0.9-0.3,1.6,0.2,2.4,0.5c4.4,2.1,8.5,6.5,11.6,10.5C-143.8,7-142.6,8.4-143.2,9.4 M-220.7-4.1
				c-2.4,0.9-4.8,1.8-7.4,2.1c-1.7,0.2-3.7,0.3-5-0.9c-0.3-0.3-0.3-0.5-0.2-0.8c0.5-1.1,1.8-1.1,2.8-1.3
				C-227.1-5.4-223.7-4.9-220.7-4.1 M-177.5,30.2l-0.3,0.4c-1.3,0.8-2.9-0.1-4-0.7c-6.2-3.7-12.4-12.3-16.4-18.1
				c1,0.2,4.8,1.4,7.4,3.1c4.6,2.6,10.5,8.2,13,13C-177.6,28.5-177.1,29.4-177.5,30.2 M-196-1c-4.6-3.6-9.9-5.8-15.9-5.1
				c-2,0.3-4,0.8-6,1.3c-4.2-1.2-9.1-2-13.6-1c-1.1,0.3-2.6,0.9-2.9,2.3c-0.1,1.2,1,2.2,2,2.7c5.3,2.6,11.8,0.5,17-1
				c2,1.5,3.8,3.5,5.4,5.4l3.3,4.1c0.5,0.8,1.7,2.3,1.7,2.3c-5.4,0.3-11.3,0.9-14.6,5.6c-1.6,2.5-1.4,6.1,0.2,8.7
				c3.3,4.8,8.7,6.3,14.2,6.6c3.4,0.1,6.6-0.6,9.6-1.7c0,0-0.1-0.5-0.1-0.8c-4.3,1.1-9.6,1.4-13.9,0c-3.6-1-7.8-4.2-8.2-8.3
				c-0.4-2.7,1-5.2,3.3-6.6c2.9-1.8,6.5-2.2,10.1-2.3c4.6,6,11.1,13.9,17.4,18c2.5,1.5,5.1,3,8.3,2.9c0.8,0,1.7-0.4,2.2-1.2
				c1-1.5,0.1-3.4-0.6-4.8c-3.2-5.6-9.9-11.1-15.3-13.7c-2.2-0.9-4.5-1.7-6.9-2.2c-2.7-4.1-4.7-6.9-8.6-9.8c-1.7-1.3-3.6-2.3-5.5-3
				c3.6-1.5,8.9-1.6,12.4,0.2c2.9,1.4,5.7,3.6,7.9,6.3l5.5,7h5.7l-11.9-15.1c-0.2-0.3-0.3-0.5-0.1-0.7c0.4-0.8,1.9,0,1.9,0
				s1.6,0.6,7.4,5.8c1.8,1.7,3.5,3.3,5,5.2l3.9,4.9h5.4c-1.3-1.7-2.5-3.3-3.6-4.9c2.8,2.3,5.5,4.5,8.9,5.2c1.3,0.2,2.5-0.2,3.3-1.3
				c0.9-1.5,0.3-3.5-0.5-4.8l-1.1-1.4l-6.7-7.8c-0.2-0.2-0.2-0.5,0-0.6c0.5-0.3,1.2,0.2,1.7,0.4c2.5,1.2,4.6,2.8,6.7,4.8
				c0.6,0.7,1.2,1.8,1.7,2.5c3.4,4.3,8.1,7.3,13.2,8.3c1.4,0.2,3.2,0.4,4.2-0.7c0.3-0.4,0.4-0.9,0.4-1.4l0.8,0.9l6.6,8.5l6.4,8.3
				h5.5l-15.9-20.6l-8.1-10.4c-0.1-0.2-0.2-0.4-0.1-0.6c0.2-0.5,1.1-0.2,1.5-0.1c3.4,1,6.3,3.5,8.7,6.4l8.6,11l-3.4,0l1.2,1.5h3.3
				c0,0,9.8,12.7,10,12.9h5.5l-9.8-12.8l8.1,0l-1.3-1.5l-8,0l-13-16.6c-0.2-0.3-0.2-0.5-0.1-0.7c0.2-0.3,0.4-0.4,0.8-0.4
				c1.8,0,3.2,1.2,4.8,2.4c1.7,1.4,4.6,4.1,4.6,4.1l0.9-0.9C-127-2-129.8-5-132.8-6c-0.9-0.3-2.8-0.8-4.2,0.1
				c-1.4,0.8-1.6,2.3-0.6,4.3l-0.1,0c-3-2.3-6-5.2-10.1-4.5c-0.8,0.1-1.5,0.8-1.9,1.6c-0.3,0.8-0.4,1.9-0.1,2.7
				c-0.8-0.5-1.6-1.3-2.4-1.8c-2.3-1.6-5.2-3.6-8.2-2.3c-1.2,0.6-1.6,2.2-1.6,3.5c0,0.3,0.1,0.7,0.1,1c-2.2-1.8-4.5-3.3-7-4.4
				c-1.1-0.4-3.7-1-5,0.4c-0.6,0.8-0.8,1.5-0.5,2.7c0.4,1.5,3.7,5,3.7,5l6.4,7.2c0,0,0.3,0.3,0,0.7c-0.3,0.5-1,0.1-1.4-0.1
				c-3.1-1.3-6.5-4.1-10.5-8.1c-2.4-2.2-6.8-7.7-6.8-7.7l-5.4,0l4.1,5.3c-0.1,0.2-0.3-0.1-0.3-0.1s-4.2-4.1-7-5.3l-0.1,0
				c-1.1-0.4-3.7-0.9-5,0.4c-0.6,0.8-0.8,1.5-0.5,2.7C-196.8-1.6-196-1-196-1"/>
		</g>
	</g>
	<g>
		<path class="st2" d="M59.9,116.4c-0.1-1.8-0.1-3.6-0.2-5.5c0.4,0.1,0.7,0.1,1.1,0.1c0.3,0,0.7,0.1,1,0.1c0.3,0,0.7,0,1-0.1
			c0.3,0,0.7-0.1,1.1-0.1c-0.1,1.9-0.2,3.7-0.2,5.5c-0.1,1.8-0.1,3.6-0.1,5.5c0,3.6,0,6.6,0,9.3c0,2.6,0.1,5,0.1,7
			c2,0,3.9,0,5.8-0.1c1.8,0,3.8-0.2,5.9-0.5c-0.1,0.5-0.2,0.9-0.2,1.3c0,0.3,0.1,0.7,0.2,1.1c-1.3-0.1-2.6-0.1-3.9-0.1
			c-1.3,0-2.6,0-3.9,0c-1.4,0-2.7,0-3.9,0c-1.3,0-2.6,0-3.9,0.1c0.1-1.8,0.2-3.5,0.2-5.3c0.1-1.8,0.1-3.6,0.1-5.5v-7.3
			C60,120,60,118.2,59.9,116.4z"/>
		<path class="st2" d="M82.3,116.4c-0.1-1.8-0.1-3.6-0.2-5.5c0.4,0.1,0.7,0.1,1.1,0.1c0.3,0,0.7,0.1,1,0.1c0.3,0,0.7,0,1-0.1
			c0.3,0,0.7-0.1,1.1-0.1c-0.1,1.9-0.2,3.7-0.2,5.5c-0.1,1.8-0.1,3.6-0.1,5.5v7.3c0,1.9,0,3.7,0.1,5.5c0.1,1.8,0.1,3.6,0.2,5.3
			c-0.7-0.1-1.3-0.1-2.1-0.1c-0.7,0-1.4,0-2.1,0.1c0.1-1.8,0.2-3.5,0.2-5.3c0.1-1.8,0.1-3.6,0.1-5.5v-7.3
			C82.4,120,82.3,118.2,82.3,116.4z"/>
		<path class="st2" d="M108.8,129c-3.7-3.9-7.3-7.9-11-11.8c0,0.8-0.1,1.9-0.1,3.2c0,1.3,0,3.1,0,5.4c0,0.6,0,1.3,0,2.2
			c0,0.9,0,1.8,0,2.8c0,1,0,1.9,0.1,2.9c0,1,0.1,1.9,0.1,2.8c0,0.8,0.1,1.6,0.1,2.2c0,0.6,0.1,1.1,0.1,1.3c-0.5-0.1-0.9-0.1-1.5-0.1
			c-0.6,0-1.1,0-1.6,0.1c0.1-0.3,0.1-0.8,0.2-1.6c0.1-0.8,0.1-1.7,0.2-2.7c0.1-1.1,0.1-2.2,0.2-3.5c0.1-1.2,0.1-2.5,0.2-3.7
			c0-1.2,0.1-2.5,0.1-3.6c0-1.2,0-2.2,0-3.2c0-2.7,0-5,0-7c0-1.9,0-3.4-0.1-4.4h0.7c1.7,1.9,3.6,3.9,5.5,6c2,2.1,3.9,4.2,5.8,6.3
			c1.9,2.1,3.8,4,5.5,5.9c1.7,1.9,3.3,3.4,4.6,4.7v-5.8c0-3,0-5.9-0.1-8.7c0-2.8-0.1-5.5-0.3-7.9c0.6,0.1,1,0.2,1.4,0.2
			c0.3,0,0.8-0.1,1.4-0.2c-0.1,0.6-0.1,1.6-0.2,2.8c-0.1,1.2-0.1,2.6-0.2,4c-0.1,1.4-0.1,2.8-0.2,4.2c-0.1,1.4-0.1,2.4-0.1,3.3
			c0,0.7,0,1.6,0,2.5c0,1,0,2,0,3c0,1,0,2.1,0,3.2c0,1.1,0,2,0,3c0,0.9,0,1.7,0,2.4c0,0.6,0,1.1,0,1.4h-0.6
			C116,136.8,112.5,133,108.8,129z"/>
		<path class="st2" d="M129.4,116.4c-0.1-1.8-0.1-3.6-0.2-5.5c1.1,0.1,2.1,0.1,3.2,0.1c1.1,0,2.1,0.1,3.2,0.1c1.1,0,2.1,0,3.2-0.1
			c1.1-0.1,2.1-0.1,3.2-0.1c2.5,0,4.6,0.3,6.4,1c1.8,0.6,3.2,1.6,4.3,2.8c1.1,1.2,2,2.7,2.5,4.4c0.5,1.7,0.8,3.7,0.8,5.9
			c0,2.8-0.5,5.2-1.5,7.1c-1,1.9-2.2,3.5-3.7,4.7c-1.5,1.2-3.2,2-5,2.5c-1.8,0.5-3.6,0.7-5.2,0.7c-1,0-1.9,0-2.8,0
			c-0.9,0-1.9,0-2.8,0c-1,0-1.9,0-2.8,0c-0.9,0-1.9,0-2.8,0.1c0.1-1.8,0.2-3.5,0.2-5.3c0.1-1.8,0.1-3.6,0.1-5.5v-7.3
			C129.5,120,129.5,118.2,129.4,116.4z M133.2,138.2c0.6,0.1,1.4,0.2,2.4,0.3c1,0.1,2.1,0.1,3.1,0.1c1.6,0,3.1-0.2,4.7-0.6
			c1.6-0.4,2.9-1.1,4.2-2.1c1.2-1,2.2-2.4,3-4.2c0.8-1.8,1.2-4,1.2-6.8c0-2.5-0.3-4.5-0.9-6.1s-1.4-2.8-2.5-3.8
			c-1.1-0.9-2.3-1.6-3.8-1.9c-1.5-0.4-3.1-0.5-4.8-0.5c-1.3,0-2.5,0-3.6,0.1s-2.1,0.2-3,0.3c-0.1,1.4-0.1,2.8-0.2,4.3
			s-0.1,3-0.1,4.5v7.3C133,132.2,133.1,135.2,133.2,138.2z"/>
		<path class="st2" d="M162.5,119.1c0.8-1.9,1.9-3.5,3.3-4.8c1.4-1.3,3.1-2.3,5-3s4.1-1,6.4-1c2.3,0,4.5,0.3,6.4,1
			c2,0.7,3.6,1.7,5,3c1.4,1.3,2.5,2.9,3.3,4.8c0.8,1.9,1.2,4,1.2,6.4c0,2.4-0.4,4.5-1.2,6.4c-0.8,1.9-1.9,3.5-3.3,4.8
			c-1.4,1.3-3.1,2.3-5,2.9c-1.9,0.6-4.1,1-6.4,1c-2.3,0-4.5-0.3-6.4-1c-1.9-0.6-3.6-1.6-5-2.9c-1.4-1.3-2.5-2.9-3.3-4.8
			c-0.8-1.9-1.2-4-1.2-6.4C161.3,123.1,161.7,121,162.5,119.1z M188,119.5c-0.6-1.7-1.4-3.1-2.5-4.2c-1.1-1.1-2.3-1.9-3.7-2.5
			c-1.4-0.5-3-0.8-4.6-0.8c-1.6,0-3.2,0.3-4.6,0.8c-1.4,0.5-2.7,1.4-3.7,2.5c-1.1,1.1-1.9,2.5-2.5,4.2c-0.6,1.7-0.9,3.7-0.9,6.1
			c0,2.3,0.3,4.4,0.9,6.1c0.6,1.7,1.4,3.1,2.5,4.2s2.3,1.9,3.7,2.5c1.4,0.5,3,0.8,4.6,0.8c1.7,0,3.2-0.3,4.6-0.8
			c1.4-0.5,2.7-1.4,3.7-2.5s1.9-2.5,2.5-4.2c0.6-1.7,0.9-3.7,0.9-6.1C188.9,123.2,188.6,121.2,188,119.5z"/>
		<path class="st2" d="M200,116.4c-0.1-1.8-0.1-3.6-0.2-5.5c0.8,0.1,1.6,0.1,2.4,0.1c0.8,0,1.6,0.1,2.4,0.1s1.6,0,2.4-0.1
			c0.8-0.1,1.6-0.1,2.4-0.1c1.2,0,2.3,0.1,3.4,0.3c1.1,0.2,2,0.6,2.8,1.1c0.8,0.5,1.4,1.2,1.9,2.1s0.7,1.9,0.7,3.2
			c0,1.4-0.3,2.5-0.9,3.5s-1.3,1.8-2.2,2.4c-0.9,0.6-1.8,1.1-2.8,1.5s-1.9,0.6-2.7,0.7c0.3,0.4,0.8,1,1.4,1.8c0.6,0.8,1.3,1.6,2,2.5
			c0.7,0.9,1.5,1.9,2.3,2.9s1.6,2,2.3,2.9s1.4,1.8,2.1,2.5c0.7,0.8,1.2,1.3,1.6,1.7c-0.4-0.1-0.8-0.1-1.3-0.1s-0.8,0-1.3,0
			c-0.4,0-0.8,0-1.2,0s-0.8,0-1.2,0.1c-0.4-0.6-1.1-1.5-1.9-2.7c-0.9-1.2-1.8-2.5-2.9-3.8c-1-1.4-2.1-2.7-3.2-4
			c-1.1-1.3-2.1-2.5-3-3.4h-1.6v3.1c0,1.9,0,3.7,0.1,5.5c0.1,1.8,0.1,3.6,0.2,5.3c-0.7-0.1-1.3-0.1-2.1-0.1c-0.7,0-1.4,0-2.1,0.1
			c0.1-1.8,0.2-3.5,0.2-5.3c0.1-1.8,0.1-3.6,0.1-5.5v-7.3C200.1,120,200.1,118.2,200,116.4z M204.9,124.5c0.5,0,1,0,1.5,0
			c0.9,0,1.8-0.1,2.7-0.3c0.9-0.2,1.8-0.5,2.6-1c0.8-0.5,1.4-1.2,2-2c0.5-0.8,0.8-1.9,0.8-3.2c0-1.1-0.2-2-0.6-2.7
			c-0.4-0.7-0.9-1.3-1.6-1.7c-0.7-0.4-1.4-0.7-2.1-0.9s-1.5-0.2-2.2-0.2c-1,0-1.8,0-2.5,0.1c-0.7,0-1.2,0.1-1.7,0.1
			c-0.1,1.6-0.1,3.1-0.2,4.6c-0.1,1.5-0.1,3.1-0.1,4.6v2.4C204,124.4,204.4,124.4,204.9,124.5z"/>
	</g>
</g>
</svg>
