<svg xmlns="http://www.w3.org/2000/svg" width="399.987" height="71.13mm" viewBox="0 0 300 201.64"><defs><style>.a{fill:#d21f39}.b{fill:#fff}.c{fill:#b4975a}</style></defs><title>partner</title><path class="a" d="M150 201.64c-82.71 0-150-45.22-150-100.81S67.29 0 150 0s150 45.23 150 100.83-67.29 100.81-150 100.81z"/><path class="b" d="M67.5 135.81c0 3.62.14 7.27.22 10.85a87.63 87.63 0 0 0 13.28-.52 11 11 0 0 0 0 2.86c-3-.13-7.3-.25-10.28-.25-2.76 0-5 .16-7.79.34.12-1.26.26-2.5.3-3.76v-5.19c0-2.17.09-4.32.09-6.48 0-5.06-.18-10.12-.31-15.14.09 0 1.47.18 2.42.18a19.66 19.66 0 0 0 2.41-.26 51 51 0 0 0-.21 5.66v5.32zm24.8-10.42v4.84c0 2.94 0 5.88.08 8.82 0 2.07 0 4.11.14 6.13.09 1.31.21 2.56.34 3.81a25 25 0 0 0-2.59-.17 18.05 18.05 0 0 0-2.59.21c.17-2.42.3-4.84.3-7.3v-12.76c0-2.5 0-5-.22-7.52 0-1-.13-2-.21-2.94a16.09 16.09 0 0 0 2.54.22c1 0 1.6-.09 2.51-.17-.08 2.29-.21 4.57-.3 6.83zm12.11-6.75c.82.91 1.59 1.86 2.42 2.77 1.6 1.72 3.29 3.42 5 5.1 2.11 2.12 4.28 4.24 6.43 6.4 2.81 2.81 5.44 5.62 8.25 8.48 0-4.59-.13-9.17-.26-13.71 0-1.69-.13-3.33-.22-5-.08-1.38-.26-2.76-.38-4.19a9.45 9.45 0 0 0 1.81.22 9.61 9.61 0 0 0 1.69-.13c-.23 2.64-.22 5.23-.26 7.87-.09 3.5-.27 7-.27 10.5 0 2 0 4 .09 5.93s.13 4.06.21 6h-1.32c-2.55-2.78-5.1-5.49-7.74-8.17-3.06-3.12-6.22-6.15-9.33-9.21-1.77-1.73-3.46-3.5-5.23-5.23.09 3.41.18 6.87.22 10.28 0 2.21.08 4.42.22 6.57.13 1.95.3 3.86.51 5.76a10 10 0 0 0-1.77-.17 8.07 8.07 0 0 0-1.72.21c.17-2.2.26-4.41.34-6.57.05-2.51.05-5 .05-7.53v-4.36q0-3.69-.13-7.4c0-1.51-.08-3-.17-4.53zm48.09-.25l1.94.12a15 15 0 0 1 8.56 3.16c1.91 1.6 4.84 5.1 4.84 11.37a15.36 15.36 0 0 1-4.28 11.24 12.82 12.82 0 0 1-5.26 3.59 22.68 22.68 0 0 1-5.91 1.08c-1.3 0-2.6.13-3.89.08-1.82 0-3.58-.13-5.45-.17h-4.57c.21-2.32.35-4.71.39-7.08.08-2.68.08-5.32.08-8s0-5.54-.12-8.31c-.05-2.38-.14-4.75-.22-7.12 1.5.08 3 .17 4.53.17 2.16 0 3.87-.13 6.07-.17zm-9.23 2.2c-.08 3.54-.17 7-.17 10.59 0 3 .09 6.06 0 9.13v4.05c.05.78.08 1.56.18 2.34 1.3.13 2.59.22 3.84.26h2.5c.81 0 1.69 0 2.56-.08a10.4 10.4 0 0 0 7.66-3.94c3-3.63 3-8.22 3-9.72a15.85 15.85 0 0 0-.47-4.07 10.87 10.87 0 0 0-6.35-7.74 18.26 18.26 0 0 0-6.05-1zm34.55 2.41c2-2.12 5.88-5 12.76-5 1.85 0 7.94.13 12.4 4.15 2 1.82 4.49 5 4.49 11.29a15.19 15.19 0 0 1-4.76 11.75 16.83 16.83 0 0 1-12.05 4.41 17.58 17.58 0 0 1-10.8-3.11 12.12 12.12 0 0 1-2.51-2.34 16.26 16.26 0 0 1-3.42-10.85 14.58 14.58 0 0 1 3.89-10.3zm3.68 20.23a11.41 11.41 0 0 0 17.84.65c1.65-1.95 3.16-5 3.16-10.68a15.19 15.19 0 0 0-2.68-9.08 11.73 11.73 0 0 0-2.33-2.33 10.92 10.92 0 0 0-4.33-1.73 19.57 19.57 0 0 0-2.8-.27 10.65 10.65 0 0 0-6.61 2.26c-4 3-5 7.31-4.85 12.1s1.34 7.36 2.6 9.09zm34.96-24.54h8.34c.52 0 1.08 0 1.6.09a7.42 7.42 0 0 1 5.83 2.89 7.29 7.29 0 0 1 1.35 4.07 8 8 0 0 1-2.42 5.4c-1.82 1.77-4.07 2.2-6.53 2.72 2 2.59 3.93 5.19 6 7.69 1.91 2.38 3.93 4.72 6 7v.48c-1-.08-2-.21-3.08-.21a22.45 22.45 0 0 0-2.93.21c-1.6-2.33-3.2-4.63-4.89-6.87-2.06-2.73-4.23-5.4-6.39-8.08l-1 .16v7.7c0 1.3 0 2.56.05 3.82s.12 2.2.21 3.27a17.63 17.63 0 0 0-2.64-.21 22.76 22.76 0 0 0-2.46.17c.26-2.55.47-5.06.52-7.56s.08-5.28.13-8v-3.77c0-2.43 0-4.84-.13-7.27-.09-1.34-.17-2.67-.26-4zm1.77 8.56v5.53a21 21 0 0 0 6.4-.6 6 6 0 0 0 4.23-5.93 5.26 5.26 0 0 0-4.14-5.49 12.58 12.58 0 0 0-3.15-.34c-1.08 0-2.12.08-3.2.17-.05 2.2-.14 4.41-.14 6.66z"/><path class="c" d="M150 201.64c-82.71 0-150-45.22-150-100.81S67.29 0 150 0s150 45.23 150 100.83-67.29 100.81-150 100.81zm0-4.44c80.55-1.51 146.08-46 146.08-99.11S230.55 2.94 150 4.45 3.91 50.41 3.91 103.55 69.44 198.7 150 197.2z"/><path class="c" d="M117 58c2-1.86 4.55-2.35 5.71-1.1s.5 3.77-1.49 5.63-4.55 2.35-5.71 1.09S115 59.82 117 58z"/><path class="c" d="M169.08 68.8c-.94-1.1-2.59-.07-3.67.38a53.86 53.86 0 0 0-12 10.36c-1.91 2.25-3.93 4.44-4.87 7.16a1.37 1.37 0 0 0 .52 1.2c1.15.33 2.1-.28 3.1-.64 5.85-2.81 11.17-8.55 15.24-13.85.79-1.41 2.48-3.21 1.68-4.61zM67.15 86.58a43.13 43.13 0 0 0-9.68-2.8c-2.28-.22-4.89-.37-6.59 1.22a.85.85 0 0 0-.21 1c.72 1.41 2.35 1.43 3.69 1.75a33.77 33.77 0 0 0 12.79-1.17zm56.72-45.06l-.41-.47c-1.76-1-3.75.09-5.31.9-8.22 4.87-16.37 16.18-21.52 23.85a37.28 37.28 0 0 0 9.75-4c6.06-3.38 13.83-10.79 17.08-17.14.36-.98.94-2.08.41-3.14zm-24.27 41c-6 4.8-13 7.58-21 6.74a71.79 71.79 0 0 1-7.91-1.73c-5.48 1.56-11.9 2.61-17.86 1.32-1.49-.43-3.45-1.2-3.79-3-.12-1.6 1.29-2.93 2.58-3.57 7-3.38 15.58-.72 22.33 1.36A39.49 39.49 0 0 0 81 76.52l4.37-5.44c.7-1 2.29-3.09 2.29-3.09-7.12-.36-14.88-1.17-19.19-7.37a11.18 11.18 0 0 1 .21-11.38c4.34-6.35 11.5-8.24 18.74-8.68a34.3 34.3 0 0 1 12.59 2.18s-.09.73-.16 1.08c-5.68-1.43-12.58-1.87-18.23.06-4.7 1.36-10.2 5.58-10.74 10.88a8.71 8.71 0 0 0 4.39 8.67c3.85 2.37 8.51 2.88 13.29 3 6-7.88 14.65-18.33 22.89-23.68 3.33-2 6.75-4 10.9-3.78a3.68 3.68 0 0 1 3 1.57c1.34 2 .18 4.49-.77 6.29-4.25 7.38-13 14.66-20.11 18a56.58 56.58 0 0 1-9.08 2.93c-3.52 5.39-6.16 9.13-11.3 12.94a29.69 29.69 0 0 1-7.23 3.93c4.79 2 11.66 2.06 16.36-.26A29.88 29.88 0 0 0 103.63 76l7.27-9.2h7.53l-15.59 19.86a.88.88 0 0 0-.19 1c.56 1.09 2.53 0 2.53 0s2.09-.8 9.71-7.66a59.34 59.34 0 0 0 6.61-6.85l5.13-6.43h7.09C132 68.9 130.49 71 129 73.09c3.65-3 7.26-5.94 11.74-6.83A4.22 4.22 0 0 1 145 68c1.25 2 .45 4.6-.72 6.37l-1.51 1.9-8.84 10.28a.56.56 0 0 0 0 .85c.65.45 1.55-.3 2.23-.51a33.69 33.69 0 0 0 8.84-6.33c.79-.89 1.54-2.33 2.28-3.25a29.69 29.69 0 0 1 17.42-11c1.86-.27 4.17-.56 5.55.91a2.61 2.61 0 0 1 .48 1.82l1.08-1.25 8.75-11.17L189 45.78h7.2l-20.9 27.07-10.63 13.74a1 1 0 0 0-.11.78c.29.61 1.43.27 2 .15 4.46-1.36 8.29-4.6 11.48-8.41l11.36-14.46H185l1.6-1.91h4.4s12.93-16.74 13.16-17h7.19l-13 16.88H209l-1.7 2h-10.48l-17.11 21.89a1 1 0 0 0-.19.88 1 1 0 0 0 1.06.57c2.32 0 4.26-1.58 6.32-3.22 2.28-1.79 6-5.43 6-5.43l1.15 1.2c-3.73 3.35-7.39 7.36-11.34 8.65-1.18.46-3.66 1-5.53-.08s-2.1-3-.77-5.66h-.14c-4 3.06-7.84 6.81-13.28 5.92a3.72 3.72 0 0 1-2.49-2.06 5.69 5.69 0 0 1-.17-3.6c-1 .7-2.06 1.65-3.11 2.37-3 2.14-6.84 4.8-10.74 3.08-1.62-.84-2.17-2.83-2.13-4.59.05-.43.1-.91.17-1.29a36.85 36.85 0 0 1-9.18 5.75c-1.4.52-4.85 1.25-6.57-.49a3.62 3.62 0 0 1-.67-3.51c.48-2 4.83-6.53 4.83-6.53l8.46-9.54a.74.74 0 0 0 0-.92c-.43-.6-1.31-.1-1.86.11-4 1.67-8.58 5.39-13.83 10.65a128.89 128.89 0 0 0-8.93 10.16h-7.16l5.44-7c-.17-.21-.43.1-.43.1s-5.49 5.46-9.16 6.94h-.06c-1.39.51-4.85 1.25-6.57-.49a3.6 3.6 0 0 1-.66-3.48 5 5 0 0 1 1.43-2.49zM21.07 102H275.3v3.56H21.07zm226.04-51a2.25 2.25 0 0 0-1.82-1.84 5 5 0 0 0-.31-1.18 2.28 2.28 0 0 0-1.14-1.11 5 5 0 0 1-2 3.43 5 5 0 0 0-.11-1.45c-.05-.18-.26-.28-.41-.36a2.6 2.6 0 0 0-2.2 0c-.28.17-.26.56-.37.84a2.88 2.88 0 0 1-1.91 1.94c.08-.55.14-.9.14-.9a9.22 9.22 0 0 1-3.83-.28s-.31 2.37-2.27 2.37-2.24-2.46-2.24-2.46a9.23 9.23 0 0 1-3.83.28s.07.36.14.93a2.89 2.89 0 0 1-2-2c-.1-.28-.09-.67-.38-.84a2.58 2.58 0 0 0-2.19 0c-.15.08-.35.18-.4.36a4.67 4.67 0 0 0-.11 1.45 5 5 0 0 1-2-3.43 2.26 2.26 0 0 0-1.13 1.11 5 5 0 0 0-.32 1.18 2.23 2.23 0 0 0-1.79 1.96 1.38 1.38 0 0 0 0 .67c.08.06.12-.09.17-.12a1.1 1.1 0 0 1 .86-.22 23.56 23.56 0 0 1 2.44 1.51 5.76 5.76 0 0 0 1.19.53 2.29 2.29 0 0 0 2.06-.5l.08-.13a7.13 7.13 0 0 0 2.25 1.36 6.34 6.34 0 0 0 1.45.31v.33c2.4 0 2.44 2.65 2.44 2.65h1.74v.54h3.17v-.54h1.77s.12-2.65 2.44-2.65v-.33a7.57 7.57 0 0 0 1.35-.31 7.21 7.21 0 0 0 2.25-1.36l.09.13a2.24 2.24 0 0 0 2 .49 5.73 5.73 0 0 0 1.19-.52 23.05 23.05 0 0 1 2.45-1.51 1.11 1.11 0 0 1 .86.22c.05 0 .08.18.16.12a1.51 1.51 0 0 0 .07-.67zm-27.52.43c-.15.33-1.8-1.31-2.07-1.17a.3.3 0 0 0 0 .26c.44.7 1.21 1.08 1.71 1.72a.59.59 0 0 1-.13.33 11.8 11.8 0 0 1-2.34-1.57 2.57 2.57 0 0 0-1-.5h-.26a1.41 1.41 0 0 1 1.33-.62h.31c.1 0 0-.36 0-.54a2 2 0 0 1 .35-1.19 5.93 5.93 0 0 0 2.25 2.9.51.51 0 0 1-.15.34zm1.44-.54a4.76 4.76 0 0 1-.46-1.5c0-.31.24-.24.32-.12a6.39 6.39 0 0 0 .83 1.77c.17.19.31.47.68.38.16-.15-.39-.7-.51-1.06s-.57-1.24-.22-1.37a.39.39 0 0 1 .31.13 4.7 4.7 0 0 0 .28.74 4.13 4.13 0 0 0 2.79 2.26l.07.6a5.75 5.75 0 0 1-2.15-.87c-.05 0-.17-.05-.18 0s.11.4.27.51a5 5 0 0 0 2.07.89v.4a5.08 5.08 0 0 1-4.13-2.8zm8.28 5.91h-1.05a2.83 2.83 0 0 0-1.92-2.66 21.28 21.28 0 0 0-.26-3.1 7.54 7.54 0 0 0 1.87-.16 1.71 1.71 0 0 1-.75 1.45 1.93 1.93 0 0 0 1.54-.16 2.54 2.54 0 0 1-.9 1.55 2.08 2.08 0 0 0 1.27-.08 20.75 20.75 0 0 1 .2 3.12zm1.59-1.65a1.15 1.15 0 1 1 .92-1.13 1 1 0 0 1-.92 1.09zm4.58-1a3.15 3.15 0 0 0-1.92 2.66h-1.06a26.33 26.33 0 0 1 .2-3.16 2.11 2.11 0 0 0 1.28.08 2.49 2.49 0 0 1-.9-1.55 1.92 1.92 0 0 0 1.54.16 1.68 1.68 0 0 1-.75-1.45 7.52 7.52 0 0 0 1.87.16 21.28 21.28 0 0 0-.26 3.05zm5.32-3.25a5.11 5.11 0 0 1-4.13 2.8v-.4a5 5 0 0 0 2.07-.89c.17-.11.35-.28.28-.52 0-.07-.14 0-.19 0a5.75 5.75 0 0 1-2.13.87l.06-.6a4.11 4.11 0 0 0 2.78-2.26 4.2 4.2 0 0 0 .29-.74.31.31 0 0 1 .29-.12c.36.12-.07.9-.21 1.36s-.66.91-.5 1.06c.36.09.5-.19.67-.38a6.24 6.24 0 0 0 .83-1.77c.08-.12.3-.19.33.12a5 5 0 0 1-.44 1.42zm5.14-.37a2.65 2.65 0 0 0-1 .5 10.86 10.86 0 0 1-2.31 1.55.54.54 0 0 1-.14-.34c.51-.63 1.28-1 1.71-1.71a.27.27 0 0 0 0-.26c-.28-.14-1.92 1.49-2.07 1.17a.43.43 0 0 1-.12-.29 6 6 0 0 0 2.24-2.9 2 2 0 0 1 .34 1.19v.54c0 .16.21 0 .31 0a1.46 1.46 0 0 1 1.34.62.616.616 0 0 0-.3-.12z"/><path class="c" d="M235.77 35.88a2.32 2.32 0 0 0-1.68-.48 5.15 5.15 0 0 0-.78.23 2.43 2.43 0 0 0-2.4-2 2.66 2.66 0 0 0-2.39 2 4.77 4.77 0 0 0-.78-.23 2.32 2.32 0 0 0-1.68.48 2 2 0 0 0-.7 2.08 1.2 1.2 0 0 0 1 .84 1.92 1.92 0 0 0 .66-.12c.31.16.44.59.61.9l-.24-.12c-.33-.14-.75-.09-1.07-.29a2.24 2.24 0 0 0 .16.69c.24.64.93.78 1.5 1.1a3.51 3.51 0 0 1-.8-.12 3.27 3.27 0 0 0-.41-.17 2.09 2.09 0 0 0 .67 1.11 1.9 1.9 0 0 0 .78.35.22.22 0 0 1 .18.15 8.51 8.51 0 0 0-.86 0c.29.83 1.28 1.23 2 1.67a.32.32 0 0 1-.2.22c-.2.08-.33.32-.56.25a.63.63 0 0 0-.62.3.51.51 0 0 0-.05.42 3.07 3.07 0 0 0-.54 2.48 2.85 2.85 0 0 0 1.52 1.84V50a2.06 2.06 0 0 0 1.79 2 2 2 0 0 0 1.89-2v-.54a2.85 2.85 0 0 0 1.52-1.84 3 3 0 0 0-.55-2.48.48.48 0 0 0 0-.42.63.63 0 0 0-.62-.3c-.24.07-.37-.17-.57-.25a.37.37 0 0 1-.2-.22c.69-.44 1.67-.84 2-1.67a8.44 8.44 0 0 0-.87 0 .23.23 0 0 1 .18-.15 1.9 1.9 0 0 0 .78-.35 2.09 2.09 0 0 0 .67-1.11 3.27 3.27 0 0 0-.41.17 4.17 4.17 0 0 1-.8.12c.57-.32 1.26-.46 1.49-1.1a2 2 0 0 0 .17-.69c-.33.2-.74.15-1.07.29l-.24.12c.17-.31.3-.74.61-.9a1.84 1.84 0 0 0 .66.12 1.16 1.16 0 0 0 1-.84 2 2 0 0 0-.75-2.08zm-6.38-.46a1.63 1.63 0 0 1 1.2-.94 1.8 1.8 0 0 1 1.59.61 2.25 2.25 0 0 1 .37.95 7.53 7.53 0 0 1-.59 2.42 18.48 18.48 0 0 0-.32 2.48c0 .55-.09 1.65-.07 2.22 0 .07 0 .16-.12.18s-.12-.05-.15-.1a14.87 14.87 0 0 1 .14-4.62 18 18 0 0 0 .56-2.22 1.32 1.32 0 0 0-.71-1.32 1.27 1.27 0 0 0-1.08.05 1 1 0 0 0-.5.94 1.42 1.42 0 0 0 .07.22.78.78 0 0 1 .49-.27.63.63 0 0 1 .45.2 2 2 0 0 1 .23 1.11c-.06 1-.28 1.92-.34 2.93a13.4 13.4 0 0 0 .17 3s0 .14-.09.14-.16-.07-.21-.15a6.42 6.42 0 0 1-.23-1.29c0-.58-.06-1.6 0-2.2a23.12 23.12 0 0 0 .21-2.62.41.41 0 0 0-.14-.31.36.36 0 0 0-.39-.09c-.11 0-.14.13-.16.27a1.41 1.41 0 0 1-.38-1.59zM229 41a7.45 7.45 0 0 0-.59-3.26 1.18 1.18 0 0 0-1.2-.6.94.94 0 0 0-.74.66.64.64 0 0 1 0 .24.63.63 0 0 1-.25-.67 1.22 1.22 0 0 1 1.1-.83 1.78 1.78 0 0 1 1.68 1.05 4.78 4.78 0 0 1 .4 2.12 10.62 10.62 0 0 0 .32 3.14c-.67-.32-.59-1.22-.72-1.85zm.85 9.86l-.05-1.12.5.12v1.4c-.16-.1-.3-.26-.44-.42zm2.77-5.79a.28.28 0 0 1 .28.16c0 .21-.29.25-.44.35a2.29 2.29 0 0 1 .54 2.28 1.26 1.26 0 0 1-.7.88h-.19a4.15 4.15 0 0 0 .11-2.37 2.2 2.2 0 0 0-.26-.63l-.75.09a8 8 0 0 1 0 3.23 1.58 1.58 0 0 1-.61 0 8.62 8.62 0 0 1-.1-2.44c0-.25.09-.5.14-.75-.17-.06-.39 0-.57-.09s-.25-.12-.26 0a4.45 4.45 0 0 0-.11 3c-.11 0-.18-.07-.28-.1-.62-.31-.68-1.07-.65-1.74a2.73 2.73 0 0 1 .54-1.39c-.16-.1-.39-.1-.45-.29s0-.2.07-.22.38.11.58.16a4.92 4.92 0 0 0 3.12-.15zm2.83-7a.64.64 0 0 1-.05-.24.94.94 0 0 0-.74-.66 1.19 1.19 0 0 0-1.2.6 7.75 7.75 0 0 0-.59 3.26c-.13.65 0 1.55-.7 1.87a11 11 0 0 0 .31-3.14 4.78 4.78 0 0 1 .41-2.12 1.73 1.73 0 0 1 1.7-1.06 1.2 1.2 0 0 1 1.11.82.64.64 0 0 1-.24.6zm-23.24 24.26a3 3 0 0 1 1.51-.22 25.16 25.16 0 0 1 4.31 1.3c.05 0 .14.09.12.16-.08.31-2-.15-2 .34a.61.61 0 0 0 .17.36c1 .94 4 .23 5.38.24a1.76 1.76 0 0 1 1.09.64c.84-1.1 2-.08 2.78-.18l.15-.14c.06-.25-.25-.39-.16-.66.32-1 2.15-.41 2.8-.27.25.06.55-.16.79-.23.8-.24 2.72 0 2.17 1s-1.74.49-2.35.93c0 .09 0 .25-.08.32a16.12 16.12 0 0 0-2.49.76c-.11.1 0 .22 0 .3-.4.43-2.07 1-2.21 1.88 0 .12.16.12.16.22a5.36 5.36 0 0 0-.49 2.18c0 .09.51.23.65.3-.06.17.07.18 0 .35l-1.1.09a17.69 17.69 0 0 0-2.61.4c-.35.08-.72.24-1.07.29h-.18a15.19 15.19 0 0 1-2.13-.62c-.41-.14-.31-.59-.47-.91a1.94 1.94 0 0 0 .24-.7.88.88 0 0 0 .34-1.31c0-.06-.08-.12-.16-.1 0 .3 0 .57-.38.6-.6-.79-1.26 0-1.41.7a2.89 2.89 0 0 1-.27-.76c0-.39.13-.84-.26-1.12a.61.61 0 0 0-.61-.09c.26.2.46.46.24.78-1.13.23-1.18 1.08-.44 1.8a1.92 1.92 0 0 1 .29.84 1 1 0 0 0-.63 0c-.79-.29-1.39.48-1.07.54s.42-.18.64.06c-.16 1.18.93 1.43 1.76.83a.91.91 0 0 1 .48.13c.43 1-.93 1.11-.22 2.09s1.63-.31 1.62 1c1-.67-.59-1-.07-2.51.6-.34 1.25.68 1.38 1.14 1.92-.07 1 .54 1 1.22.32-.07 1.72 0 1.86.28s.13.79.3 1.19h.13c.24-.18 1.09-1 1.35-.49.12.25 1.45.6 1.34.83-.9 1.8-.28 4.4-.32 6.4a4.08 4.08 0 0 1-.85 2c-1.35.8-1.54-1.23-1.87-1.62-.15-.19-.86-.41-.86-.13.24.09.55.39.41.67-.71.17-.57 1-.28 1.51a3.84 3.84 0 0 0-.68-.09c-.55-.37-1.14-.28-1.35.41a.74.74 0 0 1 .81 0c-.15 2.31 1.55.56 2.17 1.14-.22.18-.23.37-.37.58-.34.47-.71.8-.08 1.34 0-.32 0-.63.38-.72.58.81 1.49 0 1.56-.75 2.06-1.1.64.44 1.91.86s1.35-1.45 2.09-.36a.41.41 0 0 0 .11-.31c0-.54-.65-.59-1-.61-.17-.18-.46-.22-.67-.35-.65-.35.16-2.36.82-2.33 0-.32.06-1.22.61-1 .15.05.28.37.45.2.2-.78.35-1.77 1.28-1h.2c.29-3.8 1-3.27 1.64-.06.28.05.56 0 .62.38a7.73 7.73 0 0 0 .38 1.84 1.63 1.63 0 0 0 .44 0 10.16 10.16 0 0 0 1.27 1.94c.16.09.38-.1.54-.1.43.35 1.63 1.35 2.16 1.37a2.36 2.36 0 0 1 .46-.36 7.74 7.74 0 0 0 2.61.75c.14-.09.21-.26.33-.38a10.75 10.75 0 0 0 2.51-.22c.28-.1.14-.47.43-.59a3.82 3.82 0 0 0 1.57-.82s.15-1 .86-1.27c.59.17 1.47.61 1.07 1.37-.07-.72-1-.81-1.11-.3s.33.58.38.93c.1.61-.61.89-1 1.2a.32.32 0 0 0 .25.17c3.09.72 3.61-2.52 4.36-2.51.07 0 .19.07.22 0s-.54-.63-.75-.65c-.58-.06-.76.46-.88.51-.06-1.29-.88-1.77-1.8-2.44.15-.51.55-.75.75-1.17s-.31-.6-.42-.9.38-1.23.33-1.68-.38-.24-.58-.33c-.58-.25-.32-1.13-.4-1.6s-.69-.23-1.06-.37-.53-.79-.94-1-.48 0-.7.16c-.45.25-.91-.15-1.33-.21s-.48.21-.68.4-.85.19-1.16.53-.12.47-.24.68-.51.43-.67.74.1.87.07 1.32a4.86 4.86 0 0 0 0 1c.07.49.42.65.58 1.06a2 2 0 0 0 1.3 1.19 2.9 2.9 0 0 0 .91.72 2 2 0 0 1-1.82.26c-.27-.56-1.19-.27-1.57-.77-.08-.1 0-.38 0-.52-.22-.2-.95-.87-.91-1.18s.42-.48.37-.86a2.4 2.4 0 0 1-.83-1.37c.32-.3.76-.52.9-1-.22-.68-.88-1.13-1-1.92a3.62 3.62 0 0 0 1-.66c.13-.13.45-.39.31-.58-.29-.37-1.91-1.39-1.63-2 .59-.36 2.43.48 2.94.86.14.11.41.54.62.34a16.41 16.41 0 0 1 1.38-1.46 5 5 0 0 1 3.62-1c.39.33.34 1.37 1.54.71a2.08 2.08 0 0 1 .24.85 1.16 1.16 0 0 0 .11-1.43c0-.41-.18-.55-.3-.89-.53-1.54 1-5.18 1.94-6.4.06-.09.19-.25.33-.21.74.21.68.23 1.29-.27a1.88 1.88 0 0 1 .36.63.94.94 0 0 0-.4-1.34.7.7 0 0 0-.37-.44 8.43 8.43 0 0 1-.32-7.61c.12-.3.37-.54.4-.88a.72.72 0 0 0-.24-.58.89.89 0 0 1 .63-.39.88.88 0 0 0-1.3.23c-.48.1-.58.31-.74.74a17.5 17.5 0 0 0-8.42 5.07.64.64 0 0 0-.92-.11c-.13-.23 0-.47.13-.67-.94 0-.67 2-.3 2.45-.15.62-1.1 4.9-1.31 5.18a8.69 8.69 0 0 1-3.23 2.07c-1.17-.51 1.34-2.09 1.5-2.31s-.4-.43-.08-.72.68-.46 1-.75c.14-.14.42-.4.28-.61s-.56-.39-.4-.64.87-1.18.78-1.61-.7-.14-.72-.53.39-2-.16-2.38c-.33-.22-.79.66-1 .15-.15-.33-.45-1.94-1-1.8-.28.06-.45.83-1 .75-.26-.22-.86-1.71-1.3-1.28-.25.24-.78 1.25-1.25 1.12s-.38-1.14-.9-.84-.67.61-1.08.82c-.2.09-.29-.1-.45-.19s-.61.13-.89.24c-.79.32-1.18-.1-1.83-.45a3.35 3.35 0 0 0-2.73-.46c-1 .17-1.2-.68-2.4.71l-2.06-.07c-.31 0-1.94-1.42-2.45 0-.29.82.54 1.11.34 1.8.19.43.51-.23 1-.05s.22.52.39.78h.15c.53-.56 1-.45 1.35.19.23.42.51-.21.84-.1s.56.28.86.38 1.32-.2 1.75-.1c.05 0 .13.05.12.12a9.34 9.34 0 0 1-2.6.68c-2.51.15-4.79-2.6-7.25-3a.92.92 0 0 0-.82.12c1.75.62.53 1.83.53 2.26zm2.46 7.36c.13 0 0 .68 0 .9-.77.47-.61-1.04 0-.9zm-.85 3c.06-.63 1-.08.94.16-.13.67-.98.21-.94-.11zm27.77 12.91c.08-.13.26 0 .36 0a8.84 8.84 0 0 1 1.54.59c-.27.62-1.71-.03-1.9-.54zm4.41.49a1.52 1.52 0 0 1 .57 1.54c0 .09-.11.27 0 .35h.2a2.34 2.34 0 0 1-.71.62c0-.65.47-1.22 0-1.88-.6-.85-2.95-1.38-3-2.28.16-.06.23.07.33.16.77.7 1.83.9 2.61 1.54zm-.41-2.57a4.07 4.07 0 0 1-.88 1 1.46 1.46 0 0 1-.5-.2 5 5 0 0 1 1.38-.75zm-.54-1.74c0-.06.21-.33.28-.13-.14.77-.82 2.16-1.61 2.42-.08-.05-.21-.09-.29-.14s0-.13.08-.15a10 10 0 0 0 1.54-1.95zm-1.05-.09c.16-.48.16-1.25.35-1.64a.31.31 0 0 1 .24-.1c0 .8.08 2-.73 2.52h-.13a5.91 5.91 0 0 1 .27-.78zm-.48-.85a7.2 7.2 0 0 0-.6-2.13c.63-.09 1.16 1.82.6 2.13zm-.62 4.07v.15c-.69.24-1.42-.53-1.38-1.21h.14a3.06 3.06 0 0 0 1.24 1.06zm-.42-4.91c-.21-.1-.24-.3-.32-.48a3.61 3.61 0 0 0-1.08-1.12c.3-.29 1.59.37 1.4 1.6zm-1.22 0c-.76-.54-.87-.69-1.78-.47-.07-.45 1.52-.99 1.78.52zm-2.47 1.58c-.49-.89.86-2 1.58-1.33-1.02.46-.95.63-1.58 1.38zm1 1.79c-.9-.67-.45-2.09.12-2-.43 1.3 0 1.43-.11 2.05zm.63-.56a2.92 2.92 0 0 0 .76 1.54c-1.4.44-.97-2.35-.75-1.49zm.16 3.26a.18.18 0 0 1 .25 0c.55.36.52 1 1.83 1.46-.55.86-2.56-.84-2.07-1.41zm-1.46-.18c.13 0 .18.14.24.25a5 5 0 0 0 1.64 1.97c-1 .53-2.15-.81-2-1.94zm-1.83-.58c.14 0 .21.15.25.26a8 8 0 0 0 .93 2.7l-.12.15c-1.23.26-1.89-3.04-1.05-3.06zm-20.74-15.4c.21 0 .1 1.08-.46.82-.19-.26-.02-.87.46-.82zm-.7 4.61h.2a6.08 6.08 0 0 0 .35.89c-.48.44-.98-.68-.55-.89zm7.81-.45c-.31 0-1 .56-1.47.66l-.12-.06c.09-.35.45-.51.58-.85l-.09-.16c-1.07-.34-1.9.88-2.83 1.08-.09 0-.22 0-.26-.07s.31-.31.31-.48c-1.25-.48-2.28-1.22-3.58-.8-.08-.15.16-.28.15-.44 0-.59-.66-.42-1-.4 0-.19.15-.24.18-.4a1.16 1.16 0 0 1-.28-.55c.56.27 1 .79 1.57 1a15.64 15.64 0 0 0 2.67.85 7.08 7.08 0 0 0 1.65-.35 15 15 0 0 1 3.14-.29 5.66 5.66 0 0 0 0 1c.11 0 .22 0 .31.06.12.46.15 1.08.24 1.56-.55.27-.35-1.43-1.17-1.36zm-4 13.77l.07-.21a2.93 2.93 0 0 1 .85.24v.19a.59.59 0 0 1-.93-.22zm1.54-1.62c.08.18.28.41.21.61-.91.27-.72-1.72-.22-.61zm.48 3.07s.9-.63.84-.16c-.11.75-1.12.45-.85.16zm4 0c0 .56-1.15.16-1-.44.11-.12.87.3.98.41zm5.12-8.16l-.16.05a.62.62 0 0 1-.17-.45 4.24 4.24 0 0 1 2.06-4.47c.52-.28 1.4-.76 2-.45-2.17 1.89-2.91 2.41-3.75 5.29zm.83 2l-.17.06a.71.71 0 0 1-.17-.45 4.28 4.28 0 0 1 2.07-4.47c.51-.29 1.39-.76 2-.45-2.18 1.9-2.91 2.42-3.75 5.29zm4.7 1.15c.52-.06-.16 1-.22 1.16a2.88 2.88 0 0 0 .19 2.26c-1.45.07-1.85-3.24.01-3.44zm-.28-2c-1.16 1.33-1.91 2.28-1.82 3.94a2.51 2.51 0 0 1 1.22-3.91c.15-.04.42-.14.55-.02zm-.11-2.36a7.44 7.44 0 0 0-3 4.23c-.07.36-.1.74-.18 1.1l-.24-.07c-.61-1.92.48-5.58 3.4-5.25zm3.43-5.13a.57.57 0 0 1-.13 0c-.06 0-.48-.22-.57-.25a5.67 5.67 0 0 0-2.52-.61 3.14 3.14 0 0 1-.75 0v-.16c.81-.47 2.94.09 3.13-.18s-.32-3.1.14-4l.15-.09c.1.75.1 1.53.21 2.28 0 .28.2 2.18.63 2s0-4.57.28-5.48c0-.16.12-.34.32-.36 0 .68.14 4.51.79 4.67a.15.15 0 0 0 .21-.12c.21-.59-.2-3.51.32-3.81l.15.1a16.58 16.58 0 0 0 .43 3.72h.19c.13-.11.18-1.42.32-1.76h.17c0 .27.08 1.28.12 1.41.24.67.48-.41.75-.28a1.07 1.07 0 0 1 .4.88c-2.36.37-2.94.47-4.76 2.05zm-3.27-3.25a4.8 4.8 0 0 1 .06 1.08l-.2.17c-1.04-.18-.11-1.95.12-1.24zm1-.73c.06-.07.26-.17.32 0 .27.56 0 1.4.35 2.06-1.09.31-1.08-1.63-.69-2.05zm10-4.38a11.37 11.37 0 0 0-1.75 4.35 6.22 6.22 0 0 0 0 2.07c.11.24.39.42.26.73a.38.38 0 0 1-.34.23c-.36 0-.34-.64-.4-.88a19.36 19.36 0 0 0-2.36-4.59 23 23 0 0 1-2-3.43c0-.19.4-1.28.7-.84a8.85 8.85 0 0 0-.11 1.28c.28.93 1.13-1.24 1.42-1 .08 0 .07.18 0 .25-.17.66-.63 1.21-.51 1.93.41.65 1-1.63 1.63-1.78 0 .78-.84 1.87-.92 2.94l.1.18c.23 0 1.32-2.49 2-2.81-.07.88-1.63 3-1.33 3.85.17.12.27 0 .35-.12.44-.83 1.27-2.63 2-3.15.06 0 .17.12.14.21-.59 1.24-1.49 2.39-1.62 3.82 0 .19 0 .39.26.39.6-.74 1-2.6 2.05-3.67.05 0 .27-.25.35-.2s.13.19.1.25zm1.36-1.67c.1.18 1.06.83.29 1-.28.06-.54-.31-.76-.45a16.26 16.26 0 0 0-4.32-2.08c-.3-.09-2.09-.44-2.12-.65 0-.43.54-.06.6-.36s.07-.43.11-.65l.15-.05a3.53 3.53 0 0 1 .28.7c0 .11.14.28.28.29.6 0-.08-1.61.42-1.75a4.74 4.74 0 0 0 .68 1.9c.65.56-.21-2.55.46-2.65l.15.11c0 .47.17 3 .75 3l.15-.1c0-.46-.34-3.75.42-3.71 0 .07.08 2.2.13 2.55a4.59 4.59 0 0 0 .48 1.61c.22.23.34 0 .35-.23 0-1.44-.33-2.92.21-4.33.06-.14.15-.35.32-.39l.14.12a9.09 9.09 0 0 0 .85 6.13zM237.17 69c.48-.45 1.34-5.15 1.58-6.14-.83-.82-.34-2.1.44-.65a17.06 17.06 0 0 1 8.71-5.51c.08-.22.19-.54.45-.6l.21.07c.3.46-.45.94-.81 1a15.56 15.56 0 0 0-8.11 5.4 4.33 4.33 0 0 0-.64 1.79c-.15.71-.65 4.31-1.44 5a12.21 12.21 0 0 1-2.95 1.71 1.1 1.1 0 0 1-.44.11v-.15c.83-.78 2.11-1.19 3-2.03zM234 62.63c.06-.39 0-.78.06-1.17a2.22 2.22 0 0 1 .55 1.14c.45 2.46-5 4.16-5 4.16 1.43-.15 3.9-.62 5-1.59.13 1.46-6.31 2.23-7 3.15 1.22-.18 2.45-.25 3.68-.32-1.31.76-2.64.6-3.93 1.77l.07.14c.24 0 .45-.16.68-.23a9.87 9.87 0 0 1 2.7-.36 7.9 7.9 0 0 0-3.1 1.85v.13h.16c.59-.38 2.5-.93 3.14-.62a7.21 7.21 0 0 0-2.71 1.74c0 .11.1.17.2.13a6 6 0 0 1 3.24-.75c-.12.29-3 1.6-2.69 2.12 0 .06.13.06.18 0 .92-.51 2.31-1.21 3.4-.86v.14c-.7.34-2.34 1.15-2.53 2 .75 0 2.56-1.42 3.39-.67a1.49 1.49 0 0 1-.12.14 6.29 6.29 0 0 1-.73.4 6 6 0 0 0-2.38 2.62 9.11 9.11 0 0 0-.44 1.46c-.4-.16-.16-2.47-.1-2.91l-.08-.16c-.4 0-.65 1.17-.75 1.46-.39-.24-.4-1.5-.46-2l-.12-.12c-.77.34-.28 3-.47 3.39-.22 0-.23-.27-.45-.25s-.38.33-.43.53c-.17.71.15 1.48 0 2.19 0 0-.06.22-.13.23s-.29-.79-.64-1a.29.29 0 0 0-.2 0c-.31.38-.13 1.55-.13 2l-.11.18c-.19 0-.24-.29-.38-.15a1.58 1.58 0 0 0-.18.66c0 .65-.06 1.29-.09 2 0 .15-.67 1.25-.76 1.54s.13.83.08 1.25c-.32.1-.38-.21-.59-.33s-1.54.49-1.86.63c-.12-.24.31-.39 0-.5a6.92 6.92 0 0 0-.92-.25v-.15c.75.15 1.89.43 2.53-.19a15.37 15.37 0 0 0 1.11-2.2c.1-.62.06-1.31.12-1.94a23.62 23.62 0 0 1 .8-4.58c.2-.68.54-1.42.68-2.11s.08-1.46.25-2.18l.29-1.33-.09-.17c-.42.07-.61.65-.82 1-.36-.26.12-2 .18-2.37h-.14a3 3 0 0 0-.75 1.19c-.5-1.12.13-1.58.2-2.56a.68.68 0 0 0-.41.05c.7-3.85 8.32-3.14 9-7.37zm-2.28.59a2.14 2.14 0 0 0 .33-2.6 1.55 1.55 0 0 1 1.11 1.72c-.09.47-1.44 1.89-1.83 1.36-.08-.11.3-.39.39-.48zm-1.39-.28c.18-1 1-1.48-.33-2.68 2.13.21 1.63 2.92.33 2.68zm-.8-.19l-.2.06c-.13-.26 0-.54-.12-.8a3.13 3.13 0 0 0-1.33-1.63c1.63.06 2.46 1.41 1.65 2.37zM227 60.87c.3.14 1.43 1.11 1.14 1.49s-1.4-1.09-1.32-1.47zm0 1.5c.4.57-1 .46-1.09-.2s.87-.05 1.09.2zm-5.24.7a9.6 9.6 0 0 0 1.68-.33c.24-.09.64-.31.7-.58a.19.19 0 0 0-.11-.25c-.38-.21-2-.2-2.84-.57a5.52 5.52 0 0 0-1-.46c-.24 0-.5.26-.71 0a.51.51 0 0 0-.51-.29c-.55 0-.49-.1-.92-.31-.26-.12-.7 0-.85 0s0-.35-.14-.46a.47.47 0 0 0-.35 0 .74.74 0 0 0-.38.4h-.15c-.34-.3.09-.81.43-.87s1 .46 1.45.6a12.23 12.23 0 0 0 2.22.31c.44-.06 1-.94 2.17-.66.56.13 2.52 1.84 2.88 1 .46-.26.48.56 0 .93s-1 .42-.06 1v.21c-.43.35-1.09-.12-1.48.27-.22.22.43.75-.1.75s-1-.83-1.51-.15c-.27.36-4.77 1.13-5.27.76a.88.88 0 0 1 .62-.12c1.47-.15 2.7-.93 4.18-1.18z"/></svg>